<svg class="animated" id="freepik_stories-medical-research" xmlns="http://www.w3.org/2000/svg" viewBox="0 0 500 500" version="1.1" xmlns:xlink="http://www.w3.org/1999/xlink" xmlns:svgjs="http://svgjs.com/svgjs"><style>svg#freepik_stories-medical-research:not(.animated) .animable {opacity: 0;}svg#freepik_stories-medical-research.animated #freepik--character-2--inject-12 {animation: 6s Infinite  linear heartbeat;animation-delay: 0s;}svg#freepik_stories-medical-research.animated #freepik--character-1--inject-12 {animation: 6s Infinite  linear heartbeat;animation-delay: 0s;}svg#freepik_stories-medical-research.animated #freepik--speech-bubbles--inject-12 {animation: 6s Infinite  linear heartbeat;animation-delay: 0s;}            @keyframes heartbeat {                0% {                    transform: scale(1);                }                10% {                    transform: scale(1.1);                }                30% {                    transform: scale(1);                }                40% {                    transform: scale(1);                }                50% {                    transform: scale(1.1);                }                60% {                    transform: scale(1);                }                100% {                    transform: scale(1);                }            }        </style><g id="freepik--background-complete--inject-12" style="transform-origin: 250px 228.229996px;" class="animable"><rect x="416.78" y="398.49" width="33.12" height="0.25" style="fill: rgb(235, 235, 235); transform-origin: 433.34px 398.615px;" id="elbqbolbrlp8k" class="animable"></rect><rect x="322.53" y="401.21" width="8.69" height="0.25" style="fill: rgb(235, 235, 235); transform-origin: 326.875px 401.335px;" id="elipqu96rjgj" class="animable"></rect><rect x="396.59" y="389.21" width="19.19" height="0.25" style="fill: rgb(235, 235, 235); transform-origin: 406.185px 389.335px;" id="ely80wcghm6od" class="animable"></rect><rect x="52.46" y="390.89" width="43.19" height="0.25" style="fill: rgb(235, 235, 235); transform-origin: 74.055px 391.015px;" id="elktn5rkugi3m" class="animable"></rect><rect x="104.56" y="390.89" width="6.33" height="0.25" style="fill: rgb(235, 235, 235); transform-origin: 107.725px 391.015px;" id="elbxd64ek73qu" class="animable"></rect><rect x="131.47" y="395.11" width="93.68" height="0.25" style="fill: rgb(235, 235, 235); transform-origin: 178.31px 395.235px;" id="el8m5o7g23sy3" class="animable"></rect><path d="M237,337.8H43.92a5.71,5.71,0,0,1-5.71-5.71V60.66A5.71,5.71,0,0,1,43.92,55H237a5.71,5.71,0,0,1,5.71,5.71V332.09A5.71,5.71,0,0,1,237,337.8ZM43.92,55.2a5.47,5.47,0,0,0-5.46,5.46V332.09a5.47,5.47,0,0,0,5.46,5.46H237a5.47,5.47,0,0,0,5.46-5.46V60.66A5.47,5.47,0,0,0,237,55.2Z" style="fill: rgb(235, 235, 235); transform-origin: 140.459999px 196.400009px;" id="elhvgh8aa90aw" class="animable"></path><path d="M453.31,337.8H260.21a5.72,5.72,0,0,1-5.71-5.71V60.66A5.72,5.72,0,0,1,260.21,55h193.1A5.71,5.71,0,0,1,459,60.66V332.09A5.71,5.71,0,0,1,453.31,337.8ZM260.21,55.2a5.47,5.47,0,0,0-5.46,5.46V332.09a5.47,5.47,0,0,0,5.46,5.46h193.1a5.47,5.47,0,0,0,5.46-5.46V60.66a5.47,5.47,0,0,0-5.46-5.46Z" style="fill: rgb(235, 235, 235); transform-origin: 356.75px 196.399994px;" id="elgoadunwoq6n" class="animable"></path><rect y="382.4" width="500" height="0.25" style="fill: rgb(235, 235, 235); transform-origin: 250px 382.525px;" id="eli680ykf5h4b" class="animable"></rect><g id="el2vcauldgqx"><rect x="33.66" y="263.54" width="230.65" height="7.16" style="fill: rgb(230, 230, 230); transform-origin: 148.985px 267.12px; transform: rotate(90deg);" class="animable"></rect></g><g id="elsso9ttyk8j"><rect x="-42.65" y="263.54" width="230.65" height="7.16" style="fill: rgb(240, 240, 240); transform-origin: 72.675px 267.12px; transform: rotate(90deg);" class="animable"></rect></g><g id="eltuub1ve6pri"><rect x="310.01" y="263.54" width="230.65" height="7.16" style="fill: rgb(230, 230, 230); transform-origin: 425.335px 267.12px; transform: rotate(90deg);" class="animable"></rect></g><g id="elmrpe9tdyt7"><rect x="345.43" y="342.03" width="83.48" height="10.55" style="fill: rgb(245, 245, 245); transform-origin: 387.17px 347.305px; transform: rotate(180deg);" class="animable"></rect></g><g id="elt94t7y0bcbl"><rect x="69.09" y="342.03" width="276.34" height="10.55" style="fill: rgb(245, 245, 245); transform-origin: 207.26px 347.305px; transform: rotate(180deg);" class="animable"></rect></g><g id="elwfljknmtqdr"><rect x="345.43" y="246.91" width="83.48" height="10.55" style="fill: rgb(245, 245, 245); transform-origin: 387.17px 252.185px; transform: rotate(180deg);" class="animable"></rect></g><g id="el83ut715v3ku"><rect x="69.09" y="246.91" width="276.34" height="10.55" style="fill: rgb(245, 245, 245); transform-origin: 207.26px 252.185px; transform: rotate(180deg);" class="animable"></rect></g><g id="el0odar0qq6bu"><rect x="345.43" y="151.79" width="83.48" height="10.55" style="fill: rgb(245, 245, 245); transform-origin: 387.17px 157.065px; transform: rotate(180deg);" class="animable"></rect></g><g id="elw6tax4hj4ig"><rect x="69.09" y="151.79" width="276.34" height="10.55" style="fill: rgb(245, 245, 245); transform-origin: 207.26px 157.065px; transform: rotate(180deg);" class="animable"></rect></g><g id="ela92ea2kcx8"><rect x="233.69" y="263.54" width="230.65" height="7.16" style="fill: rgb(240, 240, 240); transform-origin: 349.015px 267.12px; transform: rotate(90deg);" class="animable"></rect></g><polygon points="381.03 177.52 401.53 177.52 402.53 167.85 380.03 167.85 381.03 177.52" style="fill: rgb(230, 230, 230); transform-origin: 391.279999px 172.685005px;" id="eln16vhqjik3c" class="animable"></polygon><g id="elbxjn0euxotn"><rect x="379.28" y="178.19" width="24" height="17.73" style="fill: rgb(245, 245, 245); transform-origin: 391.28px 187.055px; transform: rotate(180deg);" class="animable"></rect></g><path d="M375.28,178.19h32a2,2,0,0,0,2-2h0a2,2,0,0,0-2-2h-32a2,2,0,0,0-2,2h0A2,2,0,0,0,375.28,178.19Z" style="fill: rgb(245, 245, 245); transform-origin: 391.279999px 176.190002px;" id="elwcuh6l7nx8s" class="animable"></path><g id="elwxehfbilx0h"><path d="M383.12,186.92h16.31a14.51,14.51,0,0,1,14.51,14.51v33.8a12.08,12.08,0,0,1-12.08,12.08H380.69a12.08,12.08,0,0,1-12.08-12.08v-33.8A14.51,14.51,0,0,1,383.12,186.92Z" style="fill: rgb(240, 240, 240); transform-origin: 391.274994px 217.114998px; transform: rotate(180deg);" class="animable"></path></g><rect x="379.29" y="200.56" width="25.5" height="25.5" style="fill: rgb(250, 250, 250); transform-origin: 392.04px 213.31px;" id="elhee0x0i22e9" class="animable"></rect><rect x="389.9" y="206.29" width="4.3" height="14.82" style="fill: rgb(224, 224, 224); transform-origin: 392.05px 213.7px;" id="el5qjt2a9tm6v" class="animable"></rect><g id="el7iwmc414jhj"><rect x="389.9" y="206.29" width="4.3" height="14.82" style="fill: rgb(224, 224, 224); transform-origin: 392.05px 213.7px; transform: rotate(-90deg);" class="animable"></rect></g><polygon points="241.54 295.03 257.19 295.03 257.95 287.65 240.78 287.65 241.54 295.03" style="fill: rgb(230, 230, 230); transform-origin: 249.365005px 291.339996px;" id="elp2nq5j2zt1" class="animable"></polygon><g id="eld6f8zbri15o"><rect x="240.2" y="295.54" width="18.32" height="13.53" style="fill: rgb(245, 245, 245); transform-origin: 249.36px 302.305px; transform: rotate(180deg);" class="animable"></rect></g><path d="M240.51,342.64a8.4,8.4,0,0,1-8.4-7.58c0-.41-.05-.83-.05-1.26V314.29a12.08,12.08,0,0,1,12.08-12.08h10.45a12.08,12.08,0,0,1,12.08,12.08V333.8c0,.43,0,.85-.05,1.26a8.4,8.4,0,0,1-8.4,7.58Z" style="fill: rgb(240, 240, 240); transform-origin: 249.36499px 322.425068px;" id="elq39s1768eep" class="animable"></path><path d="M237.15,295.54h24.43a1.53,1.53,0,0,0,1.53-1.53h0a1.53,1.53,0,0,0-1.53-1.52H237.15a1.53,1.53,0,0,0-1.53,1.52h0A1.53,1.53,0,0,0,237.15,295.54Z" style="fill: rgb(240, 240, 240); transform-origin: 249.36499px 294.015015px;" id="elwcw5m23lqhj" class="animable"></path><path d="M222,246.8H209.14a4.61,4.61,0,0,1-2.79-1,15.18,15.18,0,1,1,18.31.11A4.47,4.47,0,0,1,222,246.8Z" style="fill: rgb(245, 245, 245); transform-origin: 215.577764px 232.683366px;" id="eljp62afm4em" class="animable"></path><g id="elxnqxyqs510r"><rect x="211.47" y="205.81" width="8.2" height="20.27" style="fill: rgb(245, 245, 245); transform-origin: 215.57px 215.945px; transform: rotate(180deg);" class="animable"></rect></g><path d="M210.58,207h10a1.68,1.68,0,0,0,1.68-1.68h0a1.68,1.68,0,0,0-1.68-1.68h-10a1.68,1.68,0,0,0-1.68,1.68h0A1.68,1.68,0,0,0,210.58,207Z" style="fill: rgb(245, 245, 245); transform-origin: 215.580002px 205.320015px;" id="elbwrma46ugsu" class="animable"></path><path d="M197.89,237.91a5.14,5.14,0,0,0,6.18-1.53c2.32-2.79.77-5.45-.39-8.3-1-2.57-1.36-4.77-.31-7.37a43.49,43.49,0,0,0,1.78-4c.65-2.26.19-4.48-.25-6.72-.49-2.56-1.36-5.5-.37-8,1.45-3.76,8.71-6.29,11.66-3a6.36,6.36,0,0,1,1.28,4.61h-1.81c0-2.92-1.32-5.17-5.66-4-8,2.25-1.63,11.83-3.24,17.49-.76,2.69-2.72,4.81-2.33,7.75.45,3.44,3.19,5.88,2.41,9.58a7,7,0,0,1-9.79,4.9C196.08,238.88,196.93,237.44,197.89,237.91Z" style="fill: rgb(235, 235, 235); transform-origin: 207.066751px 218.718626px;" id="elss20q1jphls" class="animable"></path><path d="M206.34,211.59s.63,9.65,4.84,5.42S206.34,211.59,206.34,211.59Z" style="fill: rgb(235, 235, 235); transform-origin: 209.318349px 214.836141px;" id="elhypvphmq92n" class="animable"></path><path d="M203.83,223.3s-8.84,3.92-3.41,6.42S203.83,223.3,203.83,223.3Z" style="fill: rgb(235, 235, 235); transform-origin: 201.426871px 226.731018px;" id="el8v6ziasx3sl" class="animable"></path><path d="M202.78,238.56s-8.83,3.92-3.41,6.41S202.78,238.56,202.78,238.56Z" style="fill: rgb(235, 235, 235); transform-origin: 200.377363px 241.984806px;" id="elwz3dx9h8dgp" class="animable"></path><path d="M199,239s-3.89-8.85-6.4-3.44S199,239,199,239Z" style="fill: rgb(235, 235, 235); transform-origin: 195.577147px 236.579173px;" id="elkrnajf83bnq" class="animable"></path><path d="M209.16,198.57s-6.37-7.27-7.14-1.35S209.16,198.57,209.16,198.57Z" style="fill: rgb(235, 235, 235); transform-origin: 205.563613px 197.575867px;" id="eluirz5z7msz" class="animable"></path><path d="M205.29,207s-9.48,1.89-4.73,5.51S205.29,207,205.29,207Z" style="fill: rgb(235, 235, 235); transform-origin: 202.25896px 210.179415px;" id="elaz8yfqot7ro" class="animable"></path><path d="M186.82,342.64h-9.27a3.26,3.26,0,0,1-2-.69,10.94,10.94,0,1,1,13.18.08A3.15,3.15,0,0,1,186.82,342.64Z" style="fill: rgb(240, 240, 240); transform-origin: 182.192997px 332.479094px;" id="el9ft299dwo8v" class="animable"></path><g id="elfv2jrxl3rhd"><rect x="179.23" y="306.69" width="5.9" height="22.64" style="fill: rgb(240, 240, 240); transform-origin: 182.18px 318.01px; transform: rotate(180deg);" class="animable"></rect></g><path d="M178.59,307.51h7.18A1.21,1.21,0,0,0,187,306.3h0a1.21,1.21,0,0,0-1.21-1.21h-7.18a1.21,1.21,0,0,0-1.21,1.21h0A1.21,1.21,0,0,0,178.59,307.51Z" style="fill: rgb(240, 240, 240); transform-origin: 182.199997px 306.300085px;" id="elf7bpuo5tcgn" class="animable"></path><rect x="220.96" y="130.7" width="3.84" height="19.01" style="fill: rgb(245, 245, 245); transform-origin: 222.88px 140.205px;" id="ele1udqsitb4" class="animable"></rect><path d="M227.56,149.71h-9.35c-.88,0-1.58.47-1.58,1h0c0,.58.7,1,1.58,1h9.35c.88,0,1.58-.46,1.58-1h0C229.14,150.18,228.44,149.71,227.56,149.71Z" style="fill: rgb(245, 245, 245); transform-origin: 222.884995px 150.710007px;" id="elieebuoe30fs" class="animable"></path><path d="M238.27,122.23h0a22.35,22.35,0,0,0-5.26,6.23,18.84,18.84,0,0,1-6.45,6.62l-3.68,2.24-3.67-2.24a18.87,18.87,0,0,1-6.46-6.62,22.15,22.15,0,0,0-5.25-6.23h0c-.72-1.06,7.34-1.59,15.38-1.59S239,121.17,238.27,122.23Z" style="fill: rgb(245, 245, 245); transform-origin: 222.885566px 128.980007px;" id="elfqakext3tvk" class="animable"></path><g id="elw5kija7op7"><rect x="326.75" y="301.92" width="7.78" height="19.23" style="fill: rgb(235, 235, 235); transform-origin: 330.64px 311.535px; transform: rotate(180deg);" class="animable"></rect></g><path d="M325.91,303h9.47a1.59,1.59,0,0,0,1.59-1.59h0a1.6,1.6,0,0,0-1.59-1.6h-9.47a1.6,1.6,0,0,0-1.6,1.6h0A1.6,1.6,0,0,0,325.91,303Z" style="fill: rgb(235, 235, 235); transform-origin: 330.639999px 301.404999px;" id="elfoq398nha2f" class="animable"></path><path d="M346.21,337.57l-15.57-23.13-15.56,23.13a3.25,3.25,0,0,0,2.7,5.07h25.73A3.26,3.26,0,0,0,346.21,337.57Z" style="fill: rgb(235, 235, 235); transform-origin: 330.640615px 328.540043px;" id="el34z6ucnqa7a" class="animable"></path><path d="M411.65,306a.55.55,0,0,1,.39.93l-2.31,2.31v30.45a2.93,2.93,0,0,1-2.93,2.93H389.66a2.93,2.93,0,0,1-2.93-2.93V306Z" style="fill: rgb(240, 240, 240); transform-origin: 399.461237px 324.309998px;" id="el8tp96rao2pl" class="animable"></path><path d="M295.32,110.11a.62.62,0,0,1,.43,1.06l-2.62,2.62v34.67a3.34,3.34,0,0,1-3.34,3.33H270.28a3.33,3.33,0,0,1-3.33-3.33V110.11Z" style="fill: rgb(245, 245, 245); transform-origin: 281.441627px 130.949997px;" id="elmnel5oijgtp" class="animable"></path><path d="M275.1,112.34h-4.62a.4.4,0,0,1,0-.8h4.62a.4.4,0,0,1,0,.8Z" style="fill: rgb(230, 230, 230); transform-origin: 272.790009px 111.939995px;" id="elf6zqfcru9q9" class="animable"></path><path d="M273.31,114.79h-2.83a.4.4,0,0,1,0-.8h2.83a.4.4,0,0,1,0,.8Z" style="fill: rgb(230, 230, 230); transform-origin: 271.89502px 114.389999px;" id="elg0k19azy62t" class="animable"></path><path d="M273.31,117.24h-2.83a.41.41,0,0,1,0-.81h2.83a.41.41,0,0,1,0,.81Z" style="fill: rgb(230, 230, 230); transform-origin: 271.895004px 116.835003px;" id="el3ohjby7lgbf" class="animable"></path><path d="M273.31,119.69h-2.83a.41.41,0,0,1,0-.81h2.83a.41.41,0,0,1,0,.81Z" style="fill: rgb(230, 230, 230); transform-origin: 271.895004px 119.285004px;" id="elbvhnodv1x9e" class="animable"></path><path d="M273.31,122.13h-2.83a.4.4,0,0,1,0-.8h2.83a.4.4,0,0,1,0,.8Z" style="fill: rgb(230, 230, 230); transform-origin: 271.89502px 121.729996px;" id="elssa8om0ilg" class="animable"></path><path d="M275.1,124.58h-4.62a.4.4,0,0,1,0-.8h4.62a.4.4,0,0,1,0,.8Z" style="fill: rgb(230, 230, 230); transform-origin: 272.790009px 124.180004px;" id="elxgj94zl4u8" class="animable"></path><path d="M273.31,127h-2.83a.41.41,0,0,1,0-.81h2.83a.41.41,0,0,1,0,.81Z" style="fill: rgb(230, 230, 230); transform-origin: 271.895004px 126.595001px;" id="elwrjv89xllal" class="animable"></path><path d="M273.31,129.48h-2.83a.41.41,0,0,1,0-.81h2.83a.41.41,0,0,1,0,.81Z" style="fill: rgb(230, 230, 230); transform-origin: 271.895004px 129.074997px;" id="el3oukq2ttp1f" class="animable"></path><path d="M273.31,131.92h-2.83a.4.4,0,0,1,0-.8h2.83a.4.4,0,0,1,0,.8Z" style="fill: rgb(230, 230, 230); transform-origin: 271.89502px 131.519997px;" id="ele9ja2qnfzq" class="animable"></path><path d="M273.31,134.37h-2.83a.4.4,0,0,1,0-.8h2.83a.4.4,0,0,1,0,.8Z" style="fill: rgb(230, 230, 230); transform-origin: 271.89502px 133.969994px;" id="elufpv3q53i0g" class="animable"></path><path d="M275.1,136.82h-4.62a.41.41,0,0,1,0-.81h4.62a.41.41,0,0,1,0,.81Z" style="fill: rgb(230, 230, 230); transform-origin: 272.790009px 136.415009px;" id="el4sqm96zcink" class="animable"></path><path d="M273.31,139.27h-2.83a.41.41,0,0,1,0-.81h2.83a.41.41,0,0,1,0,.81Z" style="fill: rgb(230, 230, 230); transform-origin: 271.895004px 138.865005px;" id="el9r6orxmpxtv" class="animable"></path><path d="M273.31,141.72h-2.83a.41.41,0,0,1,0-.81h2.83a.41.41,0,0,1,0,.81Z" style="fill: rgb(230, 230, 230); transform-origin: 271.895004px 141.315002px;" id="eln22a5q5608" class="animable"></path><path d="M273.31,144.16h-2.83a.4.4,0,0,1,0-.8h2.83a.4.4,0,0,1,0,.8Z" style="fill: rgb(230, 230, 230); transform-origin: 271.89502px 143.76001px;" id="el6qpcw14f4ww" class="animable"></path><path d="M273.31,146.61h-2.83a.41.41,0,0,1,0-.81h2.83a.41.41,0,0,1,0,.81Z" style="fill: rgb(230, 230, 230); transform-origin: 271.895004px 146.205002px;" id="elhnzofrbsh4t" class="animable"></path><path d="M275.1,149.06h-4.62a.41.41,0,0,1,0-.81h4.62a.41.41,0,0,1,0,.81Z" style="fill: rgb(230, 230, 230); transform-origin: 272.790009px 148.654999px;" id="elxr7e1k8cv5i" class="animable"></path><path d="M111.62,231.43H88.56a4.28,4.28,0,0,1-4.28-4.28v-14h2v14a2.29,2.29,0,0,0,2.28,2.28h23.06Z" style="fill: rgb(224, 224, 224); transform-origin: 97.950001px 222.289993px;" id="elf0gd2258glo" class="animable"></path><circle cx="111.62" cy="213.14" r="12.69" style="fill: rgb(240, 240, 240); transform-origin: 111.62px 213.14px;" id="el9cp61tv5fd" class="animable"></circle><path d="M122.55,243.34H115l-.91-20h-5l-.92,20h-7.52A3.65,3.65,0,0,0,97,247v.32H126.2V247A3.65,3.65,0,0,0,122.55,243.34Z" style="fill: rgb(235, 235, 235); transform-origin: 111.599997px 235.330002px;" id="elkfypwyl82ar" class="animable"></path><path d="M89.44,213.14A4.17,4.17,0,1,1,85.28,209,4.16,4.16,0,0,1,89.44,213.14Z" style="fill: rgb(240, 240, 240); transform-origin: 85.270044px 213.170045px;" id="elo7rzj7t88v" class="animable"></path><path d="M134.64,142.68h0a2.86,2.86,0,0,0,2.85-2.85V116.67h-5.71v23.16A2.86,2.86,0,0,0,134.64,142.68Z" style="fill: rgb(245, 245, 245); transform-origin: 134.635002px 129.674995px;" id="elznlsk5pgt4i" class="animable"></path><path d="M131.16,117.47h7a1.17,1.17,0,0,0,1.17-1.17h0a1.17,1.17,0,0,0-1.17-1.17h-7A1.17,1.17,0,0,0,130,116.3h0A1.17,1.17,0,0,0,131.16,117.47Z" style="fill: rgb(245, 245, 245); transform-origin: 134.665001px 116.299999px;" id="elyr81fzsntao" class="animable"></path><path d="M122.24,142.68h0a2.86,2.86,0,0,0,2.86-2.85V116.67h-5.71v23.16A2.86,2.86,0,0,0,122.24,142.68Z" style="fill: rgb(245, 245, 245); transform-origin: 122.244999px 129.674995px;" id="elirk2egffi2" class="animable"></path><path d="M118.77,117.47h7a1.17,1.17,0,0,0,1.17-1.17h0a1.17,1.17,0,0,0-1.17-1.17h-7a1.17,1.17,0,0,0-1.17,1.17h0A1.17,1.17,0,0,0,118.77,117.47Z" style="fill: rgb(245, 245, 245); transform-origin: 122.269997px 116.299999px;" id="el2l7mjm538v" class="animable"></path><path d="M109.85,142.68h0a2.86,2.86,0,0,0,2.86-2.85V116.67H107v23.16A2.85,2.85,0,0,0,109.85,142.68Z" style="fill: rgb(245, 245, 245); transform-origin: 109.855px 129.674995px;" id="elru5oqsfx23o" class="animable"></path><path d="M106.37,117.47h7a1.17,1.17,0,0,0,1.17-1.17h0a1.17,1.17,0,0,0-1.17-1.17h-7a1.17,1.17,0,0,0-1.17,1.17h0A1.17,1.17,0,0,0,106.37,117.47Z" style="fill: rgb(245, 245, 245); transform-origin: 109.870003px 116.299999px;" id="el6b1t44k7p3s" class="animable"></path><path d="M97.46,142.68h0a2.86,2.86,0,0,0,2.85-2.85V116.67H94.6v23.16A2.86,2.86,0,0,0,97.46,142.68Z" style="fill: rgb(245, 245, 245); transform-origin: 97.454998px 129.674995px;" id="elr63dm7ke1ak" class="animable"></path><path d="M94,117.47h7a1.17,1.17,0,0,0,1.18-1.17h0a1.17,1.17,0,0,0-1.18-1.17H94a1.17,1.17,0,0,0-1.17,1.17h0A1.17,1.17,0,0,0,94,117.47Z" style="fill: rgb(245, 245, 245); transform-origin: 97.504997px 116.300004px;" id="elfybz2c34ywt" class="animable"></path><path d="M88.21,119.16v32.63h2.66v-3.26h50.36v3.26h2.65V119.16Zm2.66,23V121.82h50.36v24.06H90.87Z" style="fill: rgb(235, 235, 235); transform-origin: 116.045002px 135.475006px;" id="el0b7gk3t3l7db" class="animable"></path><polygon points="133.95 342.64 107.49 307.51 81.02 342.64 133.95 342.64" style="fill: rgb(245, 245, 245); transform-origin: 107.484997px 325.075012px;" id="elk31yym3ravk" class="animable"></polygon><polygon points="81.02 342.64 107.49 307.51 107.49 342.64 81.02 342.64" style="fill: rgb(235, 235, 235); transform-origin: 94.254997px 325.075012px;" id="elf0p35bss5y" class="animable"></polygon><path d="M387.84,108.14H367.75a7.45,7.45,0,0,0-7.44,7.44v2.49h4v-2.49a3.44,3.44,0,0,1,3.44-3.44h20.09a3.44,3.44,0,0,1,3.43,3.44v2.49h4v-2.49A7.44,7.44,0,0,0,387.84,108.14Z" style="fill: rgb(224, 224, 224); transform-origin: 377.789993px 113.105px;" id="elmr80vnnu7o" class="animable"></path><path d="M407.46,123.5V146a5.45,5.45,0,0,1-5.44,5.44H353.17a5.44,5.44,0,0,1-5.43-5.44V123.5a5.43,5.43,0,0,1,5.43-5.43H402A5.44,5.44,0,0,1,407.46,123.5Z" style="fill: rgb(240, 240, 240); transform-origin: 377.599991px 134.754982px;" id="elpphxht2vpnp" class="animable"></path><rect x="365.05" y="121.93" width="25.5" height="25.5" style="fill: rgb(250, 250, 250); transform-origin: 377.8px 134.68px;" id="elnratue029f" class="animable"></rect><rect x="375.65" y="127.66" width="4.3" height="14.82" style="fill: rgb(224, 224, 224); transform-origin: 377.8px 135.07px;" id="ela6d0ng3t63o" class="animable"></rect><g id="el9byd0ttnwve"><rect x="375.65" y="127.66" width="4.3" height="14.82" style="fill: rgb(224, 224, 224); transform-origin: 377.8px 135.07px; transform: rotate(-90deg);" class="animable"></rect></g><path d="M179.17,150.65a6.82,6.82,0,0,1-5.24-.29,12.84,12.84,0,0,1-4.22-3.29,12.27,12.27,0,0,1-2.79-4.55,6.3,6.3,0,0,1,.53-5.2,6.54,6.54,0,0,1,4.34-2.66,9.13,9.13,0,0,1,10.74,10.1C182.25,147.18,181.68,149.65,179.17,150.65Z" style="fill: rgb(224, 224, 224); transform-origin: 174.593775px 142.771844px;" id="elf05tvr0bndh" class="animable"></path><path d="M177.84,123.27a14.16,14.16,0,0,1,15.88,10.56c.5,2.36.4,4.93,1.64,7,.8,1.33,2.12,2.43,2.3,4,.23,2-1.59,3.61-3.23,4.8a15.36,15.36,0,0,1-5,2.76,5.23,5.23,0,0,1-5.29-1.3c-.62-.72-3-3.87-3.89-3.63s-3.45,3-4.95,1.51c-.92-.89-1.53-.61-.64-1.52-1.55.5,1,3.49-.73,3-4.84-1.51-7.85-7.47-8.63-9.54-1.35-3.61-.16-7.8,2.26-10.79A19.75,19.75,0,0,1,177.84,123.27Z" style="fill: rgb(245, 245, 245); transform-origin: 181.207054px 137.869847px;" id="elfhnitp9nbv" class="animable"></path><path d="M181.2,134.14a5.57,5.57,0,0,1,.44,4.49,4.69,4.69,0,0,1-3,3.3,3.82,3.82,0,0,1-4-1.52,5,5,0,0,1-.61-4.32c.4-1.31,1.57-3.27,2.95-3.76S180.43,132.89,181.2,134.14Z" style="fill: rgb(224, 224, 224); transform-origin: 177.855664px 137.1195px;" id="el8fhagk57y2v" class="animable"></path><path d="M183.35,132.28a5,5,0,0,0,2.86,2.85,4.2,4.2,0,0,0,4-.18,3.44,3.44,0,0,0,1.21-3.61,4.46,4.46,0,0,0-2.64-2.87c-1.13-.47-3.15-.77-4.27-.09A3.54,3.54,0,0,0,183.35,132.28Z" style="fill: rgb(224, 224, 224); transform-origin: 187.352542px 131.766714px;" id="el9o560m3px0c" class="animable"></path><path d="M187.59,137.17a2.19,2.19,0,0,1,1.22.66,1.27,1.27,0,0,1-.57,1.79,1.89,1.89,0,0,1-2-.4,2,2,0,0,1-.22,1.37,1,1,0,0,1-1.23.43,1.11,1.11,0,0,1-.57-.94,3.41,3.41,0,0,1,.2-1.13c.15-.51.36-2.15.86-2.38S187.13,137.05,187.59,137.17Z" style="fill: rgb(224, 224, 224); transform-origin: 186.600249px 138.806712px;" id="elagyn7lf0hre" class="animable"></path><path d="M193.93,140.8c0,.38.57.8.59,1.17a7.57,7.57,0,0,1-1.18,1.29,43,43,0,0,1-8.06,5,4.11,4.11,0,0,0-2.47-1.66,2.24,2.24,0,0,1,2.55,1.05A33.38,33.38,0,0,0,194,142c-.29-.64-.9-1.76.14-2.19C194.15,139.76,193.87,139.8,193.93,140.8Z" style="fill: rgb(224, 224, 224); transform-origin: 188.664993px 144.028218px;" id="el296boqqjqwu" class="animable"></path></g><g id="freepik--Shadow--inject-12" style="transform-origin: 250px 409.390007px;" class="animable"><ellipse id="freepik--path--inject-12" cx="250" cy="409.39" rx="193.89" ry="11.32" style="fill: rgb(245, 245, 245); transform-origin: 250px 409.39px;" class="animable"></ellipse></g><g id="freepik--character-2--inject-12" style="transform-origin: 307.219788px 250.536247px;" class="animable"><path d="M264.1,175.85,256,167.71a2.91,2.91,0,0,1-.85-2.06v-3a2.92,2.92,0,0,0-1.73-2.66l-2.28-1a3.07,3.07,0,0,1-.87-.6l-2.09-2.08a2.9,2.9,0,0,0-3.8-.28l-1.14.85a2.9,2.9,0,0,0-1.08,1.67l-1.19,5.07a2.9,2.9,0,0,0,1.14,3l5,3.62,2.88,1.88a3.26,3.26,0,0,1,.65.58l8.47,10.16Z" style="fill: rgb(64, 123, 255); transform-origin: 252.498961px 169.155247px;" id="elm5wgphm8pwa" class="animable"></path><g id="elli38iamdqhl"><path d="M264.1,175.85,256,167.71a2.91,2.91,0,0,1-.85-2.06v-3a2.92,2.92,0,0,0-1.73-2.66l-2.28-1a3.07,3.07,0,0,1-.87-.6l-2.09-2.08a2.9,2.9,0,0,0-3.8-.28l-1.14.85a2.9,2.9,0,0,0-1.08,1.67l-1.19,5.07a2.9,2.9,0,0,0,1.14,3l5,3.62,2.88,1.88a3.26,3.26,0,0,1,.65.58l8.47,10.16Z" style="fill: rgb(255, 255, 255); opacity: 0.3; transform-origin: 252.498961px 169.155247px;" class="animable"></path></g><path d="M304.47,140.34s-11.25,1-18.87,19.51-11.75,19.5-14.38,18A62.55,62.55,0,0,1,266,174.3a2.5,2.5,0,0,0-3.43.44l-4.78,6a2.48,2.48,0,0,0,0,3.09c2.84,3.56,10.39,11.68,18.68,9.45,11.25-3,19.47-19,20-23.91S304.47,140.34,304.47,140.34Z" style="fill: rgb(64, 123, 255); transform-origin: 280.859989px 167.00079px;" id="el4cful8rfdjb" class="animable"></path><g id="elilarlbip4f"><path d="M304.47,140.34s-11.25,1-18.87,19.51-11.75,19.5-14.38,18A62.55,62.55,0,0,1,266,174.3a2.5,2.5,0,0,0-3.43.44l-4.78,6a2.48,2.48,0,0,0,0,3.09c2.84,3.56,10.39,11.68,18.68,9.45,11.25-3,19.47-19,20-23.91S304.47,140.34,304.47,140.34Z" style="fill: rgb(255, 255, 255); opacity: 0.6; transform-origin: 280.859989px 167.00079px;" class="animable"></path></g><path d="M301.66,100.08s-7-4.24-7.1-.92,7.31,6.89,10.46,6.46Z" style="fill: rgb(38, 50, 56); transform-origin: 299.789487px 101.77281px;" id="elxu3rkbgc6rr" class="animable"></path><g id="el7l59x9yjoai"><path d="M301.66,100.08s-7-4.24-7.1-.92,7.31,6.89,10.46,6.46Z" style="opacity: 0.4; transform-origin: 299.789487px 101.77281px;" class="animable"></path></g><path d="M295.94,384.16l.75,14.77a1.68,1.68,0,0,1-.84,1.54c-1.44.81-4.18,3.36-5.4,3.83a66.83,66.83,0,0,1-6.69,1.7,1.67,1.67,0,0,0-1.32,1.59h0a1.68,1.68,0,0,0,1.64,1.72l21.82-.46a1.68,1.68,0,0,0,1.71-1.58l1.21-22.38a1.69,1.69,0,0,0-1.55-1.77l-9.53-.72A1.68,1.68,0,0,0,295.94,384.16Z" style="fill: rgb(38, 50, 56); transform-origin: 295.630869px 395.852777px;" id="eltmq98tkohmk" class="animable"></path><path d="M291.92,239.6l1.95,89.4.53,54.53a2.9,2.9,0,0,0,2.9,2.82h10.3a2.9,2.9,0,0,0,2.89-2.61c1.23-12.23,6.15-31.63,3.95-54.49,0,0,7.39-60,7.84-78.33l-1.67-16.29Z" style="fill: rgb(38, 50, 56); transform-origin: 307.100021px 310.490021px;" id="elxpwcwjwwuj" class="animable"></path><path d="M354.68,384.72l5.69,13.64a1.67,1.67,0,0,1-.27,1.73,59.16,59.16,0,0,1-4.16,4.51,68.82,68.82,0,0,1-5.72,3.86,1.65,1.65,0,0,0-.7,1.94h0a1.67,1.67,0,0,0,2.11,1.07l20.76-6.88a1.67,1.67,0,0,0,1.08-2.07L367,381.05a1.67,1.67,0,0,0-2.05-1.14l-9.21,2.55A1.67,1.67,0,0,0,354.68,384.72Z" style="fill: rgb(38, 50, 56); transform-origin: 361.486535px 395.701105px;" id="elhg5u3j5t90g" class="animable"></path><g id="el0grj9ztya4r"><path d="M315.76,256.85s-1.15,15.08,1.74,39.58c0,0,2.5-18,3.89-27.87Z" style="opacity: 0.1; transform-origin: 318.462076px 276.639999px;" class="animable"></path></g><path d="M309.83,240.23l21.78,91.17,21,53.13a2.83,2.83,0,0,0,3.57,1.6l10.74-3.48a2.82,2.82,0,0,0,1.79-3.37c-3-11.65-5.66-31-15.71-51,0,0-6-57.84-14.08-88.77Z" style="fill: rgb(38, 50, 56); transform-origin: 339.315779px 312.902184px;" id="el1j8pd0q63mw" class="animable"></path><path d="M331.88,140.94s-.35-.13-1.07-.32V146h-26v-5.26l-1.06.16-3.25,2.41s-6.89,15-8.55,52.25v48.5h53Z" style="fill: rgb(64, 123, 255); transform-origin: 318.450012px 192.340004px;" id="el8a2byawklex" class="animable"></path><path d="M323.07,138.08c-1.77-5.46-1.39-13.29-.8-18.2l-11.84,11.71a14.47,14.47,0,0,1,.75,6.51,2.37,2.37,0,0,1-2.06,2l-5,1.58-.6,3.9,3.05.78,4.4.6,9.54-.6L331,141.44a19.87,19.87,0,0,0-4.92-.92A4.27,4.27,0,0,1,323.07,138.08Z" style="fill: rgb(255, 195, 189); transform-origin: 317.26001px 133.420006px;" id="elvk4leudbiw" class="animable"></path><g id="elf5jf07xryrc"><path d="M317.45,125.56l-6.82,6.68a16.18,16.18,0,0,1,.65,3.8c2.78-.64,6.19-3.26,7.07-6.41C318.92,127.69,318.19,125.73,317.45,125.56Z" style="opacity: 0.2; isolation: isolate; transform-origin: 314.59196px 130.799995px;" class="animable"></path></g><path d="M324.05,111c-.5,9-.36,14.28-4.88,18.9-6.79,7-17.92,2.88-20.09-6.06-2-8.11-.78-21.42,8-25a12.26,12.26,0,0,1,17,12.19Z" style="fill: rgb(255, 195, 189); transform-origin: 311.181034px 115.653118px;" id="el2fdnyggllg9" class="animable"></path><path d="M310,113.68c0,.74-.38,1.33-.86,1.33s-.87-.59-.87-1.32.38-1.32.86-1.32S310,113,310,113.68Z" style="fill: rgb(38, 50, 56); transform-origin: 309.13501px 113.690002px;" id="el5ewojy0rf4" class="animable"></path><path d="M301.73,113.72c0,.72-.38,1.32-.86,1.32s-.87-.59-.87-1.32.38-1.33.86-1.33S301.73,113,301.73,113.72Z" style="fill: rgb(38, 50, 56); transform-origin: 300.865021px 113.715px;" id="ely6orw91ho" class="animable"></path><path d="M313.11,109.55a.52.52,0,0,0,.19-.11.45.45,0,0,0-.1-.6,4.29,4.29,0,0,0-3.87-.65.43.43,0,1,0,.31.8h0a3.42,3.42,0,0,1,3.06.55A.43.43,0,0,0,313.11,109.55Z" style="fill: rgb(38, 50, 56); transform-origin: 311.20015px 108.792213px;" id="elya1kb7msqbe" class="animable"></path><path d="M297.93,109.58a.39.39,0,0,0,.4,0,3.42,3.42,0,0,1,3-.55.42.42,0,0,0,.55-.25.42.42,0,0,0-.24-.55,4.28,4.28,0,0,0-3.88.65.42.42,0,0,0-.1.58h0A.41.41,0,0,0,297.93,109.58Z" style="fill: rgb(38, 50, 56); transform-origin: 299.747939px 108.82955px;" id="elsdkordwyh5" class="animable"></path><path d="M323.93,115a6.94,6.94,0,0,0-4.94-2h-4.14a4.44,4.44,0,0,0-8.84-.2,1.28,1.28,0,0,0-1,0,4.36,4.36,0,1,0,0,.65.71.71,0,0,1,.91,0,4.44,4.44,0,0,0,8.87.12H319a6.37,6.37,0,0,1,4.53,1.88l1.34,1.34.4-.41Zm-23.3,2.13a3.89,3.89,0,1,1,3.88-3.89A3.89,3.89,0,0,1,300.63,117.1Zm9.79,0a3.89,3.89,0,1,1,3.89-3.89A3.89,3.89,0,0,1,310.42,117.1Z" style="fill: rgb(64, 123, 255); transform-origin: 310.786057px 113.256568px;" id="elzgyw0m26hig" class="animable"></path><path d="M323,98.47a12,12,0,0,0-9.43-5.66c-2.69-.14-5.62.59-7.92-.81-.84-.52-1.51-1.28-2.32-1.84a2.83,2.83,0,0,0-2.79-.46,8.51,8.51,0,0,0-4.26,8.76A9.28,9.28,0,0,0,302.8,105c4.07,1.08,8.48-.19,12.63.54,2.23.39,3.67,2.86,4.23,5.06.1.38.69.91.95,1.21,0,1.9,0,4.24,0,6.14a4.82,4.82,0,0,1,4.74-2.79L322,126.49a31.68,31.68,0,0,0,8-15.95,14.87,14.87,0,0,0-.77-7.87A6.51,6.51,0,0,0,323,98.47Z" style="fill: rgb(38, 50, 56); transform-origin: 313.196861px 108.004419px;" id="elpxcpqvliudc" class="animable"></path><path d="M328.48,119.4a8.6,8.6,0,0,1-5.32,3.79c-2.93.65-4.24-2-3.29-4.69.85-2.4,3.4-5.66,6.27-5.12S329.93,117,328.48,119.4Z" style="fill: rgb(255, 195, 189); transform-origin: 324.361073px 118.305022px;" id="elmeov5i7ebr" class="animable"></path><path d="M305.21,113.69a26.35,26.35,0,0,1-3.48,6.27c1.33,1.2,3.51.64,3.51.64Z" style="fill: rgb(237, 132, 126); transform-origin: 303.484985px 117.210256px;" id="elyoj2em6v3g" class="animable"></path><g id="elbnukmikpytj"><polygon points="292.54 244.1 293 247.34 331.21 249.35 331.21 244.1 292.54 244.1" style="opacity: 0.1; transform-origin: 311.875px 246.725006px;" class="animable"></polygon></g><path d="M307.47,139.94s-2.06,4.91,3.29,5.54S327,139.94,327,139.94l2.31.53s-.06,8.88-11.89,12.3c0,0-3.42-4.42-6.83-4.5s-7.92,3.58-7.92,3.58S300.46,146,306.21,140Z" style="fill: rgb(64, 123, 255); transform-origin: 315.781259px 146.355003px;" id="elyd4glizb3o" class="animable"></path><g id="elcm63u47vw94"><g style="opacity: 0.2; transform-origin: 315.781259px 146.355003px;" class="animable"><path d="M307.47,139.94s-2.06,4.91,3.29,5.54S327,139.94,327,139.94l2.31.53s-.06,8.88-11.89,12.3c0,0-3.42-4.42-6.83-4.5s-7.92,3.58-7.92,3.58S300.46,146,306.21,140Z" id="elvfd51vywlgg" style="transform-origin: 315.781259px 146.355003px;" class="animable"></path></g></g><path d="M307.47,139.94s-7.5,3.16-10.25,23.41-3.75,58.25-3,76,1.75,29.25-3.75,28.5c0,0-.5-28.5,0-60.25S287.72,140.52,307.47,139.94Z" style="fill: rgb(64, 123, 255); transform-origin: 298.858883px 203.912312px;" id="el2w8tncnsayo" class="animable"></path><g id="elsvioh065kcp"><path d="M307.47,139.94s-7.5,3.16-10.25,23.41-3.75,58.25-3,76,1.75,29.25-3.75,28.5c0,0-.5-28.5,0-60.25S287.72,140.52,307.47,139.94Z" style="fill: rgb(255, 255, 255); opacity: 0.8; transform-origin: 298.858883px 203.912312px;" class="animable"></path></g><path d="M330,139.94s-9,5-10,36.66-.66,91.67,10,92.67,22.34-5,22.34-5-.76-11.48-2.75-26c-1.67-12.15-4.49-26.43-5.59-38-1.27-13.32,6-50,1.34-53.67S330,139.94,330,139.94Z" style="fill: rgb(64, 123, 255); transform-origin: 335.985037px 204.661224px;" id="elhot02y2hd7r" class="animable"></path><g id="elst18kevj3m"><path d="M330,139.94s-9,5-10,36.66-.66,91.67,10,92.67,22.34-5,22.34-5-.76-11.48-2.75-26c-1.67-12.15-4.49-26.43-5.59-38-1.27-13.32,6-50,1.34-53.67S330,139.94,330,139.94Z" style="fill: rgb(255, 255, 255); opacity: 0.8; transform-origin: 335.985037px 204.661224px;" class="animable"></path></g><g id="el4extghl8cbu"><path d="M325.33,224.27h15a0,0,0,0,1,0,0v1.89a3.27,3.27,0,0,1-3.27,3.27H328.6a3.27,3.27,0,0,1-3.27-3.27v-1.89A0,0,0,0,1,325.33,224.27Z" style="fill: rgb(64, 123, 255); transform-origin: 332.829987px 226.850006px; transform: rotate(-8.18deg);" class="animable"></path></g><g id="elua8mi3acjul"><path d="M325.33,224.27h15a0,0,0,0,1,0,0v1.89a3.27,3.27,0,0,1-3.27,3.27H328.6a3.27,3.27,0,0,1-3.27-3.27v-1.89A0,0,0,0,1,325.33,224.27Z" style="fill: rgb(255, 255, 255); opacity: 0.6; transform-origin: 332.829987px 226.850006px; transform: rotate(-8.18deg);" class="animable"></path></g><path d="M318.2,214.73H297a1.67,1.67,0,0,1-1.62-1.47l-3.43-32.57a1.3,1.3,0,0,1,1.32-1.46h21.23a1.66,1.66,0,0,1,1.62,1.46l3.42,32.57A1.29,1.29,0,0,1,318.2,214.73Z" style="fill: rgb(38, 50, 56); transform-origin: 305.746469px 196.980585px;" id="elylfy0y97fx" class="animable"></path><g id="elpf9eq0o2kah"><path d="M318.2,214.73H297a1.67,1.67,0,0,1-1.62-1.47l-3.43-32.57a1.3,1.3,0,0,1,1.32-1.46h21.23a1.66,1.66,0,0,1,1.62,1.46l3.42,32.57A1.29,1.29,0,0,1,318.2,214.73Z" style="fill: rgb(255, 255, 255); opacity: 0.5; transform-origin: 305.746469px 196.980585px;" class="animable"></path></g><path d="M306.67,181.81h-5.09a2.08,2.08,0,0,1-2-1.83l-.32-3H308l.32,3A1.62,1.62,0,0,1,306.67,181.81Z" style="fill: rgb(38, 50, 56); transform-origin: 303.796892px 179.395285px;" id="el4jpz5kuij0m" class="animable"></path><g id="elyqxe75hx1qs"><path d="M306.67,181.81h-5.09a2.08,2.08,0,0,1-2-1.83l-.32-3H308l.32,3A1.62,1.62,0,0,1,306.67,181.81Z" style="fill: rgb(255, 255, 255); opacity: 0.7; transform-origin: 303.796892px 179.395285px;" class="animable"></path></g><path d="M315.47,179.23h-1a1.66,1.66,0,0,1,1.62,1.46l3.42,32.57a1.29,1.29,0,0,1-1.31,1.47h1a1.29,1.29,0,0,0,1.31-1.47l-3.42-32.57A1.66,1.66,0,0,0,315.47,179.23Z" style="fill: rgb(38, 50, 56); transform-origin: 317.496348px 196.980211px;" id="el5aqfg17dak" class="animable"></path><g id="elnf1hubp65u"><path d="M315.47,179.23h-1a1.66,1.66,0,0,1,1.62,1.46l3.42,32.57a1.29,1.29,0,0,1-1.31,1.47h1a1.29,1.29,0,0,0,1.31-1.47l-3.42-32.57A1.66,1.66,0,0,0,315.47,179.23Z" style="fill: rgb(255, 255, 255); opacity: 0.7; transform-origin: 317.496348px 196.980211px;" class="animable"></path></g><path d="M337.71,192.71l-11.83,2.67-5.24-3.12a3.07,3.07,0,0,0-2-.39l-4.26.62a3,3,0,0,0-2.23,1.56l-1,1.74a3,3,0,0,0-.32,2l.33,2a3,3,0,0,0,2.27,2.45l7.19,1.78a3,3,0,0,0,1.71-.07l5-1.69,14.33-1.67Z" style="fill: rgb(64, 123, 255); transform-origin: 326.219184px 197.974771px;" id="elsatnmhvg2p" class="animable"></path><g id="elf72mka5tytc"><path d="M337.71,192.71l-11.83,2.67-5.24-3.12a3.07,3.07,0,0,0-2-.39l-4.26.62a3,3,0,0,0-2.23,1.56l-1,1.74a3,3,0,0,0-.32,2l.33,2a3,3,0,0,0,2.27,2.45l7.19,1.78a3,3,0,0,0,1.71-.07l5-1.69,14.33-1.67Z" style="fill: rgb(255, 255, 255); opacity: 0.3; transform-origin: 326.219184px 197.974771px;" class="animable"></path></g><path d="M337.69,200.38a2.92,2.92,0,0,0,3.12,2.08c3.75-.39,10.82-1.84,15.91-7.11,7.25-7.5-2.81-36.1-6.75-43.25-4.4-8-11.22-9.15-11.22-9.15-8.78-3-7.53,5.15-5,15.15s12,24.5,12.25,27.25c.16,1.77-5.25,3.84-9.14,5.1a2.93,2.93,0,0,0-1.63,4.28A24.87,24.87,0,0,1,337.69,200.38Z" style="fill: rgb(64, 123, 255); transform-origin: 345.582434px 172.398699px;" id="elzip8id22gma" class="animable"></path><g id="el9j80fhlqw0e"><path d="M337.69,200.38a2.92,2.92,0,0,0,3.12,2.08c3.75-.39,10.82-1.84,15.91-7.11,7.25-7.5-2.81-36.1-6.75-43.25-4.4-8-11.22-9.15-11.22-9.15-8.78-3-7.53,5.15-5,15.15s12,24.5,12.25,27.25c.16,1.77-5.25,3.84-9.14,5.1a2.93,2.93,0,0,0-1.63,4.28A24.87,24.87,0,0,1,337.69,200.38Z" style="fill: rgb(255, 255, 255); opacity: 0.6; transform-origin: 345.582434px 172.398699px;" class="animable"></path></g><path d="M250.82,140.62h-4a2.2,2.2,0,0,0-2.19,2.2v0a2.19,2.19,0,0,0,1.18,1.94v35.35a2.52,2.52,0,0,0,2.52,2.52h1a2.52,2.52,0,0,0,2.52-2.52V144.79a2.19,2.19,0,0,0,1.18-1.94v0A2.2,2.2,0,0,0,250.82,140.62Z" style="fill: rgb(64, 123, 255); transform-origin: 248.830097px 161.624973px;" id="elagopuet5ums" class="animable"></path><g id="ellzj2ifwrar7"><path d="M250.82,140.62h-4a2.2,2.2,0,0,0-2.19,2.2v0a2.19,2.19,0,0,0,1.18,1.94v35.35a2.52,2.52,0,0,0,2.52,2.52h1a2.52,2.52,0,0,0,2.52-2.52V144.79a2.19,2.19,0,0,0,1.18-1.94v0A2.2,2.2,0,0,0,250.82,140.62Z" style="fill: rgb(255, 255, 255); opacity: 0.6; transform-origin: 248.830097px 161.624973px;" class="animable"></path></g><path d="M245.45,141.1a10.19,10.19,0,0,0,6.72,0,2.2,2.2,0,0,0-1.35-.48h-4A2.2,2.2,0,0,0,245.45,141.1Z" style="fill: rgb(64, 123, 255); transform-origin: 248.810005px 141.144955px;" id="el5xmp1lzqbnq" class="animable"></path><path d="M248.81,161.39c-1,0-1.88-.27-1.9-.6v19.35a1.4,1.4,0,0,0,1.4,1.4h1a1.4,1.4,0,0,0,1.4-1.4V160.79C250.69,161.12,249.85,161.39,248.81,161.39Z" style="fill: rgb(64, 123, 255); transform-origin: 248.809998px 171.165001px;" id="eladw2xfrsdqi" class="animable"></path><path d="M250.71,160.78c0,.34-.85.61-1.9.61s-1.9-.27-1.9-.61.85-.61,1.9-.61S250.71,160.44,250.71,160.78Z" style="fill: rgb(64, 123, 255); transform-origin: 248.810013px 160.779999px;" id="eli0cdtkky95" class="animable"></path><g id="elrdrcs41fzff"><path d="M250.71,160.78c0,.34-.85.61-1.9.61s-1.9-.27-1.9-.61.85-.61,1.9-.61S250.71,160.44,250.71,160.78Z" style="opacity: 0.3; transform-origin: 248.810013px 160.779999px;" class="animable"></path></g><g id="el7hs76l01u15"><g style="opacity: 0.8; transform-origin: 247.449997px 162.549995px;" class="animable"><path d="M246.89,145v35.1a.56.56,0,0,0,1.12,0V145a.56.56,0,0,0-1.12,0Z" style="fill: rgb(255, 255, 255); transform-origin: 247.449997px 162.549995px;" id="elqtgmg7yh35d" class="animable"></path></g></g><path d="M307,124.77a6.09,6.09,0,0,0,3.9-2.81.23.23,0,0,0-.09-.29.21.21,0,0,0-.28.09,5.84,5.84,0,0,1-4.39,2.74.22.22,0,1,0,0,.43h0A7.43,7.43,0,0,0,307,124.77Z" style="fill: rgb(38, 50, 56); transform-origin: 308.396693px 123.291344px;" id="el7v41gy53sf2" class="animable"></path></g><g id="freepik--character-1--inject-12" style="transform-origin: 174.162254px 290.654556px;" class="animable"><path d="M121.24,235c-.66-.08-19.78,1.8-21,22.3l3.27,14.19h0a66.34,66.34,0,0,1,47.8.65l.22.09L150.17,256S145.3,237.79,121.24,235Z" style="fill: rgb(64, 123, 255); transform-origin: 125.884998px 253.613832px;" id="elkr1h92hk04" class="animable"></path><path d="M161.39,333.93l-3.84.33a660.41,660.41,0,0,0-8.25-72.75,29.92,29.92,0,0,0-12.7-19.26,19.75,19.75,0,0,0-4.5-2.43,24.81,24.81,0,0,0-9.29-2h0v0h0a28.05,28.05,0,0,0-3.88.27,20.1,20.1,0,0,0-8.11,3.15,39.15,39.15,0,0,0-3.28,2.81,17.69,17.69,0,0,0-1.5,1.82,21.19,21.19,0,0,0-3.28,16.81,602.77,602.77,0,0,1,8.51,66.56l-3.84.26A599,599,0,0,0,99,263.45a25,25,0,0,1,3.93-19.87,23.24,23.24,0,0,1,17.23-9.71c15-1,30.61,11.19,32.92,26.83A666.75,666.75,0,0,1,161.39,333.93Z" style="fill: rgb(38, 50, 56); transform-origin: 129.888678px 284.036293px;" id="elolcqub0317f" class="animable"></path><g id="elbf8lra5ul3c"><path d="M161.39,333.93l-3.84.33a660.41,660.41,0,0,0-8.25-72.75,29.92,29.92,0,0,0-12.7-19.26,19.75,19.75,0,0,0-4.5-2.43,24.81,24.81,0,0,0-9.29-2v0h0a28.05,28.05,0,0,0-3.88.27,20.1,20.1,0,0,0-8.11,3.15,39.15,39.15,0,0,0-3.28,2.81,17.69,17.69,0,0,0-1.5,1.82,21.19,21.19,0,0,0-3.28,16.81,602.77,602.77,0,0,1,8.51,66.56l-3.84.26A599,599,0,0,0,99,263.45a25,25,0,0,1,3.93-19.87,23.24,23.24,0,0,1,17.23-9.71c15-1,30.61,11.19,32.92,26.83A666.75,666.75,0,0,1,161.39,333.93Z" style="fill: rgb(255, 255, 255); opacity: 0.3; transform-origin: 129.888678px 284.036293px;" class="animable"></path></g><path d="M114.67,322.22h73.67a7.33,7.33,0,0,1,7.33,7.33v2.05a0,0,0,0,1,0,0H107.34a0,0,0,0,1,0,0v-2.05A7.33,7.33,0,0,1,114.67,322.22Z" style="fill: rgb(64, 123, 255); transform-origin: 151.504997px 326.909973px;" id="eldu0lq0vafs4" class="animable"></path><polygon points="110.33 408.77 105.63 408.77 109.47 331.61 115.45 331.61 110.33 408.77" style="fill: rgb(38, 50, 56); transform-origin: 110.539997px 370.189987px;" id="ellw7suxrp8kc" class="animable"></polygon><g id="elyq8zau3wdlg"><polygon points="110.33 408.77 105.63 408.77 109.47 331.61 115.45 331.61 110.33 408.77" style="fill: rgb(255, 255, 255); opacity: 0.3; transform-origin: 110.539997px 370.189987px;" class="animable"></polygon></g><polygon points="141.69 408.77 137 408.77 139.56 331.61 145.53 331.61 141.69 408.77" style="fill: rgb(38, 50, 56); transform-origin: 141.264999px 370.189987px;" id="el01lw273mzuuo" class="animable"></polygon><g id="elwwibnxqf5aq"><polygon points="141.69 408.77 137 408.77 139.56 331.61 145.53 331.61 141.69 408.77" style="fill: rgb(255, 255, 255); opacity: 0.3; transform-origin: 141.264999px 370.189987px;" class="animable"></polygon></g><polygon points="166.02 408.77 161.32 408.77 157.48 331.61 163.46 331.61 166.02 408.77" style="fill: rgb(38, 50, 56); transform-origin: 161.75px 370.189987px;" id="elakpiqivad0j" class="animable"></polygon><g id="el9j1smlhyx4h"><polygon points="166.02 408.77 161.32 408.77 157.48 331.61 163.46 331.61 166.02 408.77" style="fill: rgb(255, 255, 255); opacity: 0.3; transform-origin: 161.75px 370.189987px;" class="animable"></polygon></g><polygon points="197.38 408.77 192.69 408.77 187.57 331.61 193.54 331.61 197.38 408.77" style="fill: rgb(38, 50, 56); transform-origin: 192.475006px 370.189987px;" id="elfpe9euqblei" class="animable"></polygon><g id="el1h1bsavhxdj"><polygon points="197.38 408.77 192.69 408.77 187.57 331.61 193.54 331.61 197.38 408.77" style="fill: rgb(255, 255, 255); opacity: 0.3; transform-origin: 192.475006px 370.189987px;" class="animable"></polygon></g><rect x="147.03" y="328.2" width="52.49" height="6.83" style="fill: rgb(64, 123, 255); transform-origin: 173.275px 331.615px;" id="el2xxd8d502ys" class="animable"></rect><g id="el920oy3ifijb"><rect x="147.03" y="328.2" width="52.49" height="6.83" style="fill: rgb(255, 255, 255); opacity: 0.7; transform-origin: 173.275px 331.615px;" class="animable"></rect></g><rect x="103.48" y="328.2" width="43.55" height="6.83" style="fill: rgb(64, 123, 255); transform-origin: 125.255px 331.615px;" id="el5ik1fm2rg5v" class="animable"></rect><g id="elvmhzsfux4wj"><rect x="103.48" y="328.2" width="43.55" height="6.83" style="fill: rgb(255, 255, 255); opacity: 0.4; transform-origin: 125.255px 331.615px;" class="animable"></rect></g><g id="freepik--Character--inject-2--inject-12" style="transform-origin: 185.896355px 290.654556px;" class="animable"><polygon points="226.3 401.75 234.74 400.81 237.19 380.73 225.76 382.12 226.3 401.75" style="fill: rgb(255, 181, 115); transform-origin: 231.474998px 391.240005px;" id="elqpyo3b999fr" class="animable"></polygon><path d="M235.43,398.11l-9.89-.79a.64.64,0,0,0-.73.51v.06l-1.12,7.78a1.58,1.58,0,0,0,1.43,1.69c3.44.21,4.89.15,9.25.19,2.69,0,9.1,0,12.79-.4s3.15-4.06,1.55-4.2c-3.79-.34-9.51-2-11.84-4.15A2.53,2.53,0,0,0,235.43,398.11Z" style="fill: rgb(38, 50, 56); transform-origin: 236.811399px 402.430879px;" id="elxhoqazna0ma" class="animable"></path><g id="elh5fnxtw2hk"><polygon points="225.76 382.14 237.19 380.73 235.82 391.92 226.05 391.97 225.76 382.14" style="opacity: 0.2; isolation: isolate; transform-origin: 231.474998px 386.350006px;" class="animable"></polygon></g><path d="M171.54,286.38s67,1.32,69.7,26.5a471.63,471.63,0,0,1-3.59,70.42l-12.52,1.57s-6.68-43.81-4.21-65c-18.25-3.29-69,2.16-75.83-12.08-5.61-11.62-3.94-18.5-3.94-18.5Z" style="fill: rgb(38, 50, 56); transform-origin: 191.145977px 335.625px;" id="elzrzhhs3eggd" class="animable"></path><path d="M240.12,399.56a1.12,1.12,0,0,0,.34-1.08.77.77,0,0,0-.43-.62c-1.06-.53-3.67,1-4,1.16a.2.2,0,0,0,0,.37,10.23,10.23,0,0,0,2.32.51A2.42,2.42,0,0,0,240.12,399.56Zm-.26-1.34a.35.35,0,0,1,.19.32.72.72,0,0,1-.2.71c-.45.38-1.61.34-3.16-.1C237.76,398.58,239.29,398,239.86,398.22Z" style="fill: rgb(64, 123, 255); transform-origin: 238.197134px 398.84663px;" id="ell2wibffooii" class="animable"></path><path d="M236.29,399.36c.91-.46,2.38-2.17,2.25-3.16a.79.79,0,0,0-.69-.67,1,1,0,0,0-.93.23c-.95.79-1,3.33-1,3.44a.22.22,0,0,0,.1.18l.09,0Zm1.42-3.44c.3.06.35.21.37.33.09.64-.9,2-1.72,2.55,0-.84.23-2.28.8-2.75a.6.6,0,0,1,.46-.14S237.7,396,237.71,395.92Z" style="fill: rgb(64, 123, 255); transform-origin: 237.234033px 397.438538px;" id="elokcwe7uxf8a" class="animable"></path><g id="el03gq00rn77kv"><path d="M222.63,365.34c2.71-11.32,9.63-49.3,7.73-56-2.42-8.61-37.66-12.3-37.66-12.3s12.27,5.37,20.93,22.11a72.83,72.83,0,0,1,7,21.27A101.69,101.69,0,0,1,222,359.31Z" style="opacity: 0.3; isolation: isolate; transform-origin: 211.692791px 331.190002px;" class="animable"></path></g><polygon points="205.95 401.14 214.51 401.39 217.17 381.33 205.01 380.83 205.95 401.14" style="fill: rgb(255, 181, 115); transform-origin: 211.089996px 391.110001px;" id="elxv4cto27gbc" class="animable"></polygon><path d="M214.83,398.85l-9.91-.05a.64.64,0,0,0-.67.6l-.52,7.84a1.57,1.57,0,0,0,1.54,1.59c3.45-.1,5.11-.24,9.47-.26,2.68,0,8,.27,11.62-.3s3-4.17,1.41-4.26c-3.79-.21-8.94-2.69-11.43-4.66A2.49,2.49,0,0,0,214.83,398.85Z" style="fill: rgb(38, 50, 56); transform-origin: 216.380002px 403.814595px;" id="elpxshm2my2cc" class="animable"></path><path d="M219.61,399.94a1.13,1.13,0,0,0,.26-1.11.82.82,0,0,0-.48-.59c-1.07-.45-3.58,1.28-3.86,1.47a.2.2,0,0,0-.08.13.2.2,0,0,0,.15.24,11,11,0,0,0,2.35.32A2.3,2.3,0,0,0,219.61,399.94Zm-.36-1.3a.35.35,0,0,1,.23.28.77.77,0,0,1-.16.74c-.38.4-1.57.44-3.15.13C217.2,399.13,218.67,398.4,219.25,398.64Z" style="fill: rgb(64, 123, 255); transform-origin: 217.682447px 399.290207px;" id="eljs5merp5ihn" class="animable"></path><path d="M215.8,400.08c.88-.52,2.21-2.4,2-3.31a.8.8,0,0,0-.75-.63,1,1,0,0,0-.91.28c-.9.86-.71,3.4-.7,3.51a.18.18,0,0,0,.1.16.14.14,0,0,0,.09,0A.29.29,0,0,0,215.8,400.08ZM217,396.5c.3,0,.38.19.39.31.13.63-.75,2-1.53,2.66,0-.82.06-2.27.6-2.78a.59.59,0,0,1,.44-.18Z" style="fill: rgb(64, 123, 255); transform-origin: 216.619401px 398.109366px;" id="elm7ueky658gj" class="animable"></path><g id="elgy1vjneqfl5"><polygon points="203.91 380.48 217.89 379.13 215.64 392.82 205.57 392.92 203.91 380.48" style="opacity: 0.2; isolation: isolate; transform-origin: 210.900002px 386.025009px;" class="animable"></polygon></g><path d="M158.36,287.47S224,297,223.5,316.17c2,23.23-5.28,71.73-5.28,71.73l-14.94.18s-5.07-36.25-4.27-64.69c-16.33,1.59-58.42-1.17-60.7-4.56-9.68-10-5.5-28.83-5.5-28.83Z" style="fill: rgb(38, 50, 56); transform-origin: 177.880039px 337.775009px;" id="elqi7nnacv0w9" class="animable"></path><polygon points="202 389.43 218.79 389.29 220.39 381.32 201.09 381.46 202 389.43" style="fill: rgb(64, 123, 255); transform-origin: 210.739998px 385.375px;" id="elaykycoalf7c" class="animable"></polygon><path d="M167,230.47c.27,1.53.52,2.85.83,4.25s.62,2.72,1,4.13c.7,2.71,1.52,5.4,2.43,8.16a66.28,66.28,0,0,0,7.67,16.12,30,30,0,0,0,3.25,3.94,19.47,19.47,0,0,0,4.54,3.47A21,21,0,0,0,197.14,273a29.63,29.63,0,0,0,9.35-1.83,39.84,39.84,0,0,0,4.14-1.8,17.14,17.14,0,0,0,2-1.11c.64-.43,1.23-.78,2-1.27l-3-5.9-1.73.39-1.82.36c-1.22.22-2.43.41-3.65.52a25.39,25.39,0,0,1-6.69-.11,10,10,0,0,1-6.6-3.61,21.75,21.75,0,0,1-1.71-2.47,42.72,42.72,0,0,1-3-6.29c-.92-2.25-1.71-4.63-2.46-7.06s-1.4-4.89-2.06-7.37l-.91-3.75c-.29-1.23-.6-2.55-.82-3.62Z" style="fill: rgb(255, 181, 115); transform-origin: 190.815002px 250.543589px;" id="elohei7868u6o" class="animable"></path><g id="elz5i10mdrj2l"><path d="M174,235.11c-1.58-1.17-5.16,5.13-7,12.65,1,2.68,2.06,5.25,3.13,7.66l12.05-3.74C180.49,244.51,177.55,237.74,174,235.11Z" style="opacity: 0.2; isolation: isolate; transform-origin: 174.590004px 245.194704px;" class="animable"></path></g><path d="M212.65,258.18l4.42-2.19,1.15,9.71s-7.38,4.08-9.32.41l.31-2.49A8,8,0,0,1,212.65,258.18Z" style="fill: rgb(255, 181, 115); transform-origin: 213.55999px 261.815585px;" id="el6owwa8bqpri" class="animable"></path><polygon points="222.51 255.72 226.01 263.62 218.18 265.7 217.03 255.99 222.51 255.72" style="fill: rgb(255, 181, 115); transform-origin: 221.519997px 260.710007px;" id="el78ejczpynwk" class="animable"></polygon><path d="M181.64,224.9a57.35,57.35,0,0,1-4.56,23.52c1.74,3.38,1.71,7.18,2.77,10.83s2.32,7.31,4.66,10.3,5.94,5.22,9.73,5a22.93,22.93,0,0,1-.34-7.48,8.81,8.81,0,0,1,3.8-6.73,28.54,28.54,0,0,1-5.21-4.79s-4.11-17.88-7-26.68C184.84,227,183.59,225.13,181.64,224.9Z" style="fill: rgb(64, 123, 255); transform-origin: 187.389999px 249.732477px;" id="elp04dehztw5" class="animable"></path><g id="el0sdnaxj1uyr9"><path d="M181.64,224.9a57.35,57.35,0,0,1-4.56,23.52c1.74,3.38,1.71,7.18,2.77,10.83s2.32,7.31,4.66,10.3,5.94,5.22,9.73,5a22.93,22.93,0,0,1-.34-7.48,8.81,8.81,0,0,1,3.8-6.73,28.54,28.54,0,0,1-5.21-4.79s-4.11-17.88-7-26.68C184.84,227,183.59,225.13,181.64,224.9Z" style="fill: rgb(255, 255, 255); opacity: 0.8; transform-origin: 187.389999px 249.732477px;" class="animable"></path></g><path d="M166.32,216.67l-10.06-1.8-12.65.64a8.77,8.77,0,0,0-8.13,6.86c-1.68,7.58-2.84,18.36-3.58,27.66-.83,10.44-.25,26,.91,40l42.29-3.52c1.78-36.72,5-48,5.68-57.72a8.73,8.73,0,0,0-5.75-8.88Z" style="fill: rgb(64, 123, 255); transform-origin: 156.157318px 252.449997px;" id="elpk50eqvrfwm" class="animable"></path><path d="M166.32,216.67l-10.06-1.8-12.65.64a8.77,8.77,0,0,0-8.13,6.86c-1.68,7.58-2.84,18.36-3.58,27.66-.83,10.44-.25,26,.91,40l42.29-3.52c1.78-36.72,5-48,5.68-57.72a8.73,8.73,0,0,0-5.75-8.88Z" style="fill: rgb(64, 123, 255); transform-origin: 156.157318px 252.449997px;" id="elaybbihbzvmd" class="animable"></path><g id="el5npbvrm0iv6"><path d="M139.71,219.06c8.45-1.16,7.32,17.89,3,31.7-1.26,4-6,2.13-7.55,1C130,248.13,129.05,224.76,139.71,219.06Z" style="opacity: 0.3; isolation: isolate; transform-origin: 138.724522px 236.103279px;" class="animable"></path></g><path d="M172.28,217.46c6.08,8.17,5.21,31-.33,68.92,0,0,17,3,20.54,4.87a64.14,64.14,0,0,1,11.14-.74c-5.57-5.65-16-7.66-24-7.87,2.92-23.77,6.88-37.19,4.29-55.17C183.23,222.41,177.13,219.09,172.28,217.46Z" style="fill: rgb(64, 123, 255); transform-origin: 187.789993px 254.355003px;" id="elv2mvkzkzr9d" class="animable"></path><path d="M147.59,215.4a22.1,22.1,0,0,1,27.87,3.92C166.33,217.68,156.86,215.9,147.59,215.4Z" style="fill: rgb(64, 123, 255); transform-origin: 161.525002px 215.726903px;" id="elugbgmah2bs" class="animable"></path><g id="elsztebwbbj1"><path d="M147.59,215.4a22.1,22.1,0,0,1,27.87,3.92C166.33,217.68,156.86,215.9,147.59,215.4Z" style="fill: rgb(255, 255, 255); opacity: 0.8; transform-origin: 161.525002px 215.726903px;" class="animable"></path></g><g id="eltyv9dfg5a9"><g style="opacity: 0.8; transform-origin: 187.789993px 254.355003px;" class="animable"><path d="M172.28,217.46c6.08,8.17,5.21,31-.33,68.92,0,0,17,3,20.54,4.87a64.14,64.14,0,0,1,11.14-.74c-5.57-5.65-16-7.66-24-7.87,2.92-23.77,6.88-37.19,4.29-55.17C183.23,222.41,177.13,219.09,172.28,217.46Z" style="fill: rgb(255, 255, 255); transform-origin: 187.789993px 254.355003px;" id="eli0ub15nh88" class="animable"></path></g></g><path d="M134.47,316.16a8.93,8.93,0,0,1,1.87-5.69,46.08,46.08,0,0,1,4.08-4.54c3.85-4.11,8-9.33,9.52-14.75,3.85-13.71,5.81-28.1,6.94-42.3A72.87,72.87,0,0,0,150.69,214l-12.83,1.14c-1.92.18-3.47,1.93-4.46,3.58,3.78,15.43,3,32.06-1.24,47.37-2.19,7.88-5.42,15.45-7.69,23.31s-3.56,16.24-1.78,24.23c.78,3.51,3.67,7,6.37,9.41,1.93,1.7,5.29,1.09,7.86,1.11a7.51,7.51,0,0,1-3.13-8.38C133.89,315.6,134.49,316.38,134.47,316.16Z" style="fill: rgb(64, 123, 255); transform-origin: 139.456734px 269.120247px;" id="ela4h873nxw57" class="animable"></path><g id="el1k7sngqumty"><path d="M134.47,316.16a8.93,8.93,0,0,1,1.87-5.69,46.08,46.08,0,0,1,4.08-4.54c3.85-4.11,8-9.33,9.52-14.75,3.85-13.71,5.81-28.1,6.94-42.3A72.87,72.87,0,0,0,150.69,214l-12.83,1.14c-1.92.18-3.47,1.93-4.46,3.58,3.78,15.43,3,32.06-1.24,47.37-2.19,7.88-5.42,15.45-7.69,23.31s-3.56,16.24-1.78,24.23c.78,3.51,3.67,7,6.37,9.41,1.93,1.7,5.29,1.09,7.86,1.11a7.51,7.51,0,0,1-3.13-8.38C133.89,315.6,134.49,316.38,134.47,316.16Z" style="fill: rgb(255, 255, 255); opacity: 0.8; transform-origin: 139.456734px 269.120247px;" class="animable"></path></g><path d="M145.46,248c2.92,7.73,1.8,12.66,6.84,13.88s32.43,1.16,32.69-.07c-.56,2.29-1.18,4.29-1.74,6.57q-11.19,2-22.32,4.18c-5.42,1.07-14.24,2.53-19.41.6-4.68-1.74-8.39-15-10.91-24.66C133.28,245.41,145.46,248,145.46,248Z" style="fill: rgb(255, 181, 115); transform-origin: 157.799995px 260.543379px;" id="elktuj3c9p1ys" class="animable"></path><path d="M151.77,216.63a7.43,7.43,0,0,0,1.11,5.23,22.15,22.15,0,0,0,3.55,4.13c1.65,1.63,3.62,3.38,5.93,3.16,2.13-.2,3.39-1.22,4.33-3.71,1.71,3,1.74,4.45,3.73,4.71,1.29.17,2.45-.74,3.39-1.63,1.66-1.59,2.41-2.5,2.79-4.77.62-3.68-2.26-7.23-5.71-8.66A43.65,43.65,0,0,0,160,212.5C156.73,212,152.57,212.87,151.77,216.63Z" style="fill: rgb(64, 123, 255); transform-origin: 164.180459px 221.270935px;" id="elf5xkmpz3j7" class="animable"></path><g id="el2wtx5m5fm8a"><path d="M151.77,216.63a7.43,7.43,0,0,0,1.11,5.23,22.15,22.15,0,0,0,3.55,4.13c1.65,1.63,3.62,3.38,5.93,3.16,2.13-.2,3.39-1.22,4.33-3.71,1.71,3,1.74,4.45,3.73,4.71,1.29.17,2.45-.74,3.39-1.63,1.66-1.59,2.41-2.5,2.79-4.77.62-3.68-2.26-7.23-5.71-8.66A43.65,43.65,0,0,0,160,212.5C156.73,212,152.57,212.87,151.77,216.63Z" style="opacity: 0.2; transform-origin: 164.180459px 221.270935px;" class="animable"></path></g><path d="M187.2,187.35s3.5-9.78-6.15-8.41Z" style="fill: rgb(38, 50, 56); transform-origin: 184.434319px 183.079216px;" id="els8ss5lzzrwb" class="animable"></path><g id="elcpgfmxeqhda"><path d="M187.2,187.35s3.5-9.78-6.15-8.41Z" style="fill: rgb(255, 255, 255); opacity: 0.7; transform-origin: 184.434319px 183.079216px;" class="animable"></path></g><path d="M172.12,221.32l-3.83,2.18-4.56-1.09-6.07-4.94a2,2,0,0,1,.23-.28c3.83-4.15,5.1-13.53,5.39-19.05l8.93,12.57C170.41,214.09,169.5,218.15,172.12,221.32Z" style="fill: rgb(255, 181, 115); transform-origin: 164.93499px 210.82px;" id="el46eh6j5aatu" class="animable"></path><path d="M163,187.78c-1,8.72-2,13.77,1.51,19,5.35,7.84,16.72,5.77,20.31-2.45,3.26-7.46,4.36-20.43-3.47-25.38a12,12,0,0,0-16.53,3.64A12.09,12.09,0,0,0,163,187.78Z" style="fill: rgb(255, 181, 115); transform-origin: 174.67528px 194.386227px;" id="elxbrsbdr3w7f" class="animable"></path><path d="M188.42,188.43c.15-.63.12-2.08-1.51-1.87,0,0-.95-1.87-2.37-.63,0,0-1.78-.41-2,.78-.26,1.52,1.34.61,3.05,1.42S188.14,189.49,188.42,188.43Z" style="fill: rgb(38, 50, 56); transform-origin: 185.494927px 187.260507px;" id="el4teyzwacon7" class="animable"></path><g id="elyuh6rqkodm"><path d="M188.42,188.43c.15-.63.12-2.08-1.51-1.87,0,0-.95-1.87-2.37-.63,0,0-1.78-.41-2,.78-.26,1.52,1.34.61,3.05,1.42S188.14,189.49,188.42,188.43Z" style="fill: rgb(255, 255, 255); opacity: 0.6; transform-origin: 185.494927px 187.260507px;" class="animable"></path></g><path d="M174.38,185.77c.11-.63.74-1.94,2.13-1.09,0,0,1.64-1.31,2.42.41,0,0,1.79.35,1.49,1.51-.39,1.5-1.47,0-3.36.05S174.19,186.85,174.38,185.77Z" style="fill: rgb(38, 50, 56); transform-origin: 177.405313px 185.735563px;" id="ela03146moh6e" class="animable"></path><g id="el0e3fzqmv74no"><path d="M174.38,185.77c.11-.63.74-1.94,2.13-1.09,0,0,1.64-1.31,2.42.41,0,0,1.79.35,1.49,1.51-.39,1.5-1.47,0-3.36.05S174.19,186.85,174.38,185.77Z" style="fill: rgb(255, 255, 255); opacity: 0.6; transform-origin: 177.405313px 185.735563px;" class="animable"></path></g><path d="M166.83,193.51s2.74-5.54,1.84-8.35,10.72-3,10.28-7.43-8.54-7.25-10.88-3.52a6.45,6.45,0,0,0-5.66,7.9s-3.81,3.32-.32,9.45l3.12,2.92Z" style="fill: rgb(38, 50, 56); transform-origin: 169.78995px 183.479582px;" id="eljesmhh346vk" class="animable"></path><g id="ellbbg02bx8aj"><path d="M166.83,193.51s2.74-5.54,1.84-8.35,10.72-3,10.28-7.43-8.54-7.25-10.88-3.52a6.45,6.45,0,0,0-5.66,7.9s-3.81,3.32-.32,9.45l3.12,2.92Z" style="fill: rgb(255, 255, 255); opacity: 0.7; transform-origin: 169.78995px 183.479582px;" class="animable"></path></g><path d="M185.35,203.5s-5.38-3.75-14.46-3.82c0,0-2.82-.41-3.44-4.23l-.44-2.66-2.11.25-3.08,6.57s-.1,7.47,1.9,8.29c0,0,1.47,4.08,5.54,4.16,0,0,1.35,3.18,6.41.85,0,0,2.26.56,5-2.82C180.69,210.09,183.05,210,185.35,203.5Z" style="fill: rgb(38, 50, 56); transform-origin: 173.584588px 203.276666px;" id="elqobdghmtfkp" class="animable"></path><g id="el66vdgrxweft"><path d="M185.35,203.5s-5.38-3.75-14.46-3.82c0,0-2.82-.41-3.44-4.23l-.44-2.66-2.11.25-3.08,6.57s-.1,7.47,1.9,8.29c0,0,1.47,4.08,5.54,4.16,0,0,1.35,3.18,6.41.85,0,0,2.26.56,5-2.82C180.69,210.09,183.05,210,185.35,203.5Z" style="fill: rgb(255, 255, 255); opacity: 0.7; transform-origin: 173.584588px 203.276666px;" class="animable"></path></g><path d="M174.07,204.45a6.09,6.09,0,0,1-3.9-2.81.22.22,0,0,1,.09-.29.21.21,0,0,1,.28.09,5.84,5.84,0,0,0,4.39,2.74.22.22,0,0,1,0,.43h0A5.64,5.64,0,0,1,174.07,204.45Z" style="fill: rgb(38, 50, 56); transform-origin: 172.625196px 202.968849px;" id="elv7y5dw3l2jd" class="animable"></path><path d="M181,193.86a25.44,25.44,0,0,0,2.28,6.6,4.13,4.13,0,0,1-3.47,0Z" style="fill: rgb(237, 137, 62); transform-origin: 181.545006px 197.35106px;" id="elihfa2ig5z2l" class="animable"></path><path d="M181.78,191.91a3.67,3.67,0,1,0,4.78-2A3.66,3.66,0,0,0,181.78,191.91Z" style="fill: rgb(64, 123, 255); transform-origin: 185.17327px 193.306475px;" id="el4yibswvoq7" class="animable"></path><path d="M172.39,190.48a3.67,3.67,0,1,0,4.78-2A3.66,3.66,0,0,0,172.39,190.48Z" style="fill: rgb(64, 123, 255); transform-origin: 175.78327px 191.876468px;" id="eladgf5it4t" class="animable"></path><g id="elwntqh03bwji"><path d="M181.78,191.91a3.67,3.67,0,1,0,4.78-2A3.66,3.66,0,0,0,181.78,191.91Z" style="fill: rgb(255, 255, 255); opacity: 0.6; transform-origin: 185.17327px 193.306475px;" class="animable"></path></g><g id="elufbx4sb724"><path d="M172.39,190.48a3.67,3.67,0,1,0,4.78-2A3.66,3.66,0,0,0,172.39,190.48Z" style="fill: rgb(255, 255, 255); opacity: 0.6; transform-origin: 175.78327px 191.876468px;" class="animable"></path></g><g id="el9tqayzk3cz"><path d="M186.29,196.77a3.64,3.64,0,0,1-4.51-4.86,3.6,3.6,0,0,1,1.71-1.85Z" style="fill: rgb(255, 255, 255); opacity: 0.9; transform-origin: 183.893384px 193.508797px;" class="animable"></path></g><g id="elnfc1b77tl9q"><path d="M177.15,195.27a3.66,3.66,0,0,1-2.82-6.76Z" style="fill: rgb(255, 255, 255); opacity: 0.9; transform-origin: 174.614782px 192.031056px;" class="animable"></path></g><path d="M181.49,191.79a4,4,0,1,1,2.16,5.19A4,4,0,0,1,181.49,191.79Zm.58.24a3.35,3.35,0,1,0,4.37-1.83A3.34,3.34,0,0,0,182.07,192Z" style="fill: rgb(38, 50, 56); transform-origin: 185.197066px 193.291529px;" id="elhhjwwsmpgoh" class="animable"></path><path d="M172.1,190.36a4,4,0,1,1,2.17,5.19A4,4,0,0,1,172.1,190.36Zm.58.24a3.35,3.35,0,1,0,4.37-1.83A3.35,3.35,0,0,0,172.68,190.6Z" style="fill: rgb(38, 50, 56); transform-origin: 175.808488px 191.857953px;" id="elvgpmz9bfthc" class="animable"></path><path d="M179.74,192.54a1.09,1.09,0,0,1,1.59.17l.51-.35a1.69,1.69,0,0,0-2.43-.35Z" style="fill: rgb(38, 50, 56); transform-origin: 180.625px 192.177329px;" id="el9iwya4h94y8" class="animable"></path><g id="elve5ojitcs6"><rect x="163.91" y="192" width="8.23" height="0.62" style="fill: rgb(38, 50, 56); transform-origin: 168.025px 192.31px; transform: rotate(-5.85deg);" class="animable"></rect></g><path d="M157.36,195.07a8.37,8.37,0,0,0,4.46,4.54c2.71,1.11,4.41-1.21,4-4-.41-2.45-2.32-6-5.17-6S156.36,192.54,157.36,195.07Z" style="fill: rgb(255, 181, 115); transform-origin: 161.461975px 194.751742px;" id="elrqej8kq0bm" class="animable"></path><path d="M200.46,261.24a3.63,3.63,0,0,0-3.85-2.49,6.22,6.22,0,0,0-4.14,2.53,9.94,9.94,0,0,0-1.37,9.7,7.28,7.28,0,0,0,4.43,4.35,4.84,4.84,0,0,0,5.56-2.06c-2.24-2.78-2.42-7.55-.63-10.64A5.39,5.39,0,0,0,200.46,261.24Z" style="fill: rgb(64, 123, 255); transform-origin: 195.74964px 267.140551px;" id="elkj32pr3pvte" class="animable"></path><g id="elyoq722k1rbq"><path d="M200.46,261.24a3.63,3.63,0,0,0-3.85-2.49,6.22,6.22,0,0,0-4.14,2.53,9.94,9.94,0,0,0-1.37,9.7,7.28,7.28,0,0,0,4.43,4.35,4.84,4.84,0,0,0,5.56-2.06c-2.24-2.78-2.42-7.55-.63-10.64A5.39,5.39,0,0,0,200.46,261.24Z" style="fill: rgb(255, 255, 255); opacity: 0.6; transform-origin: 195.74964px 267.140551px;" class="animable"></path></g></g><path d="M186.37,260l4.48-1.13-.81,10.9s-7.86.74-8.37-1.5l-.45-3.39C180.64,261.81,183.91,260.52,186.37,260Z" style="fill: rgb(255, 181, 115); transform-origin: 186.001161px 264.378556px;" id="elsv4pm5dh6gh" class="animable"></path><polygon points="197.37 262.15 195.83 268.23 190.03 269.76 190.85 258.87 197.37 262.15" style="fill: rgb(255, 181, 115); transform-origin: 193.699997px 264.315002px;" id="elg86b2qg4px6" class="animable"></polygon><polygon points="223.62 389.14 237.78 389.19 239.56 382.24 223.38 381.87 223.62 389.14" style="fill: rgb(64, 123, 255); transform-origin: 231.470001px 385.529999px;" id="elyb9gf0krhbj" class="animable"></polygon><path d="M137.92,215.75c-21.19,7.84-6.45,49.71-.4,60.37a28.69,28.69,0,0,0,23.32-.78c-1.51-4.83-2-10.87-.31-15.65-3.16-.56-7.38-1.08-10.54-1.64,0,0-2-14.05-2.42-23.91C147.25,226.33,145.1,216.78,137.92,215.75Z" style="fill: rgb(64, 123, 255); transform-origin: 143.85783px 246.986925px;" id="elecnxcdmmcm" class="animable"></path><g id="elsbu33olc6ve"><path d="M137.92,215.75c-21.19,7.84-6.45,49.71-.4,60.37a28.69,28.69,0,0,0,23.32-.78c-1.51-4.83-2-10.87-.31-15.65-3.16-.56-7.38-1.08-10.54-1.64,0,0-2-14.05-2.42-23.91C147.25,226.33,145.1,216.78,137.92,215.75Z" style="fill: rgb(255, 255, 255); opacity: 0.8; transform-origin: 143.85783px 246.986925px;" class="animable"></path></g><path d="M159.52,259.14a21.23,21.23,0,0,0-2.17,8.81,10.51,10.51,0,0,0,3.55,8.1,6,6,0,0,1,3.83-1.08c.83,0,1.3,0,2.13,0a73.91,73.91,0,0,1,0-14.11,10.72,10.72,0,0,0-4.3.14C162.82,259.72,160.83,258.89,159.52,259.14Z" style="fill: rgb(64, 123, 255); transform-origin: 162.10382px 267.5728px;" id="eli11q3ycrafk" class="animable"></path><g id="elm4jd3030xrl"><path d="M159.52,259.14a21.23,21.23,0,0,0-2.17,8.81,10.51,10.51,0,0,0,3.55,8.1,6,6,0,0,1,3.83-1.08c.83,0,1.3,0,2.13,0a73.91,73.91,0,0,1,0-14.11,10.72,10.72,0,0,0-4.3.14C162.82,259.72,160.83,258.89,159.52,259.14Z" style="fill: rgb(255, 255, 255); opacity: 0.6; transform-origin: 162.10382px 267.5728px;" class="animable"></path></g></g><g id="freepik--Desk--inject-12" style="transform-origin: 265.814987px 305.350533px;" class="animable"><g id="el9a9o72sn2h5"><path d="M266.64,199.31h1.72a1.87,1.87,0,0,1,1.87,1.87v17.89a0,0,0,0,1,0,0h-5.46a0,0,0,0,1,0,0V201.18A1.87,1.87,0,0,1,266.64,199.31Z" style="fill: rgb(38, 50, 56); transform-origin: 267.500015px 209.189995px; transform: rotate(26.82deg);" class="animable"></path></g><g id="elyc7d0zncxg"><path d="M266.64,199.31h1.72a1.87,1.87,0,0,1,1.87,1.87v17.89a0,0,0,0,1,0,0h-5.46a0,0,0,0,1,0,0V201.18A1.87,1.87,0,0,1,266.64,199.31Z" style="fill: rgb(255, 255, 255); opacity: 0.3; transform-origin: 267.500015px 209.189995px; transform: rotate(26.82deg);" class="animable"></path></g><rect x="264.96" y="221.03" width="5.08" height="49.47" style="fill: rgb(64, 123, 255); transform-origin: 267.5px 245.765px;" id="elra3hdspuxrj" class="animable"></rect><rect x="251.33" y="221.03" width="5.08" height="5.58" style="fill: rgb(64, 123, 255); transform-origin: 253.87px 223.82px;" id="elljrj2toj1s" class="animable"></rect><g id="elo8drspvsk0d"><rect x="264.96" y="221.03" width="5.08" height="49.47" style="opacity: 0.2; transform-origin: 267.5px 245.765px;" class="animable"></rect></g><g id="el8hu54ezqxm6"><rect x="251.33" y="221.03" width="5.08" height="5.58" style="opacity: 0.2; transform-origin: 253.87px 223.82px;" class="animable"></rect></g><rect x="254.13" y="212.86" width="4.06" height="8.17" style="fill: rgb(64, 123, 255); transform-origin: 256.16px 216.945px;" id="el9rt9gdupivs" class="animable"></rect><g id="elo3drfjf6ask"><rect x="254.13" y="212.86" width="4.06" height="8.17" style="opacity: 0.1; transform-origin: 256.16px 216.945px;" class="animable"></rect></g><path d="M276.38,221H258.19v-8.17l16.14,3.46a2.59,2.59,0,0,1,2.05,2.54Z" style="fill: rgb(64, 123, 255); transform-origin: 267.285008px 216.915001px;" id="el6478p41744j" class="animable"></path><g id="el84p19o7nhqb"><path d="M276.38,221H258.19v-8.17l16.14,3.46a2.59,2.59,0,0,1,2.05,2.54Z" style="fill: rgb(255, 255, 255); opacity: 0.2; transform-origin: 267.285008px 216.915001px;" class="animable"></path></g><path d="M257.22,229.86l-5.79-2.71a.28.28,0,0,1,.12-.54h13.27a.28.28,0,0,1,.12.54l-5.78,2.71A2.27,2.27,0,0,1,257.22,229.86Z" style="fill: rgb(38, 50, 56); transform-origin: 258.185002px 228.343567px;" id="elr3vmz6pf6w" class="animable"></path><g id="elnpvejpf7xn"><rect x="254.35" y="230.06" width="7.67" height="5.19" rx="2.14" style="fill: rgb(38, 50, 56); transform-origin: 258.185px 232.655px; transform: rotate(-90deg);" class="animable"></rect></g><g id="el2dd507gxnh2"><rect x="254.35" y="230.06" width="7.67" height="5.19" rx="2.14" style="fill: rgb(255, 255, 255); opacity: 0.6; transform-origin: 258.185px 232.655px; transform: rotate(-90deg);" class="animable"></rect></g><g id="elflb70tpt9aw"><rect x="248.9" y="228.95" width="7.67" height="5.19" rx="2.14" style="fill: rgb(38, 50, 56); transform-origin: 252.735px 231.545px; transform: rotate(-67.5deg);" class="animable"></rect></g><g id="elhchqu6puxyj"><rect x="259.8" y="228.95" width="7.67" height="5.19" rx="2.14" style="fill: rgb(38, 50, 56); transform-origin: 263.635px 231.545px; transform: rotate(-112.5deg);" class="animable"></rect></g><g id="elhc16t8gyvaw"><g style="opacity: 0.3; transform-origin: 258.185013px 231.545006px;" class="animable"><g id="elzrwsq6gui4"><rect x="248.9" y="228.95" width="7.67" height="5.19" rx="2.14" style="fill: rgb(255, 255, 255); transform-origin: 252.735px 231.545px; transform: rotate(-67.5deg);" class="animable"></rect></g><g id="el0ztxhf3w1nrd"><rect x="259.8" y="228.95" width="7.67" height="5.19" rx="2.14" style="fill: rgb(255, 255, 255); transform-origin: 263.635px 231.545px; transform: rotate(-112.5deg);" class="animable"></rect></g></g></g><path d="M270,270.5h17.18a2.35,2.35,0,0,0,2.29-2.85l-10-44.72a2.42,2.42,0,0,0-2.37-1.9H256.41v5.58H270Z" style="fill: rgb(64, 123, 255); transform-origin: 272.966911px 245.76498px;" id="el9sq6ctzmo0f" class="animable"></path><g id="elrb0xf03r65n"><path d="M270,270.5h17.18a2.35,2.35,0,0,0,2.29-2.85l-10-44.72a2.42,2.42,0,0,0-2.37-1.9H256.41v5.58H270Z" style="fill: rgb(255, 255, 255); opacity: 0.3; transform-origin: 272.966911px 245.76498px;" class="animable"></path></g><rect x="240.35" y="246.55" width="20.6" height="4.01" style="fill: rgb(38, 50, 56); transform-origin: 250.65px 248.555px;" id="ely5ein2esddd" class="animable"></rect><rect x="260.95" y="246.55" width="20.6" height="4.01" style="fill: rgb(38, 50, 56); transform-origin: 271.25px 248.555px;" id="ely4g63z77xtd" class="animable"></rect><g id="el2ck25d3j4g6"><rect x="240.35" y="246.55" width="20.6" height="4.01" style="fill: rgb(255, 255, 255); opacity: 0.7; transform-origin: 250.65px 248.555px;" class="animable"></rect></g><g id="elv1j9tdelgce"><rect x="260.95" y="246.55" width="20.6" height="4.01" style="fill: rgb(255, 255, 255); opacity: 0.3; transform-origin: 271.25px 248.555px;" class="animable"></rect></g><path d="M321.59,250.79a13.42,13.42,0,0,0-10-11v-15a2.76,2.76,0,0,0,2.11-2.67v0a2.76,2.76,0,0,0-2.76-2.75h-5a2.75,2.75,0,0,0-2.75,2.75v0a2.75,2.75,0,0,0,2.11,2.67v15a13.35,13.35,0,0,0-4.57,23.85,5.28,5.28,0,0,0,3,.95h9.41a5.23,5.23,0,0,0,3-.94A13.37,13.37,0,0,0,321.59,250.79Z" style="fill: rgb(64, 123, 255); transform-origin: 308.426304px 241.98px;" id="elbtqrdenjsdk" class="animable"></path><path d="M321.59,250.79a13.42,13.42,0,0,0-10-11v-15a2.76,2.76,0,0,0,2.11-2.67v0a2.76,2.76,0,0,0-2.76-2.75h-5a2.75,2.75,0,0,0-2.75,2.75v0a2.75,2.75,0,0,0,2.11,2.67v15a13.35,13.35,0,0,0-4.57,23.85,5.28,5.28,0,0,0,3,.95h9.41a5.23,5.23,0,0,0,3-.94A13.37,13.37,0,0,0,321.59,250.79Z" style="fill: rgb(64, 123, 255); transform-origin: 308.426304px 241.98px;" id="el4ho72gkz2kw" class="animable"></path><g id="el1loytgntblp"><path d="M321.59,250.79a13.42,13.42,0,0,0-10-11v-15a2.76,2.76,0,0,0,2.11-2.67v0a2.76,2.76,0,0,0-2.76-2.75h-5a2.75,2.75,0,0,0-2.75,2.75v0a2.75,2.75,0,0,0,2.11,2.67v15a13.35,13.35,0,0,0-4.57,23.85,5.28,5.28,0,0,0,3,.95h9.41a5.23,5.23,0,0,0,3-.94A13.37,13.37,0,0,0,321.59,250.79Z" style="fill: rgb(255, 255, 255); opacity: 0.7; transform-origin: 308.426304px 241.98px;" class="animable"></path></g><path d="M304.16,219.94c.5.41,2.19.71,4.21.71s3.71-.3,4.22-.71a2.73,2.73,0,0,0-1.7-.6h-5A2.72,2.72,0,0,0,304.16,219.94Z" style="fill: rgb(64, 123, 255); transform-origin: 308.375px 219.994941px;" id="elyjwe5j6m4v" class="animable"></path><path d="M320.2,251a11.5,11.5,0,0,0-1.59-4.31c-.14.76-4.66,1.37-10.24,1.37s-10.16-.61-10.24-1.38a11.81,11.81,0,0,0-1.7,6.1,12,12,0,0,0,5,9.74,3.81,3.81,0,0,0,2.21.69h9.41a3.7,3.7,0,0,0,2.19-.68A12,12,0,0,0,320.2,251Z" style="fill: rgb(64, 123, 255); transform-origin: 308.377345px 254.945174px;" id="elszi9cnpl1f" class="animable"></path><path d="M318.63,246.65c0,.78-4.59,1.4-10.26,1.4s-10.25-.62-10.25-1.4,4.59-1.41,10.25-1.41S318.63,245.87,318.63,246.65Z" style="fill: rgb(64, 123, 255); transform-origin: 308.375px 246.644989px;" id="el3n43oobhwin" class="animable"></path><g id="elfv3n8u7tv1"><path d="M318.63,246.65c0,.78-4.59,1.4-10.26,1.4s-10.25-.62-10.25-1.4,4.59-1.41,10.25-1.41S318.63,245.87,318.63,246.65Z" style="opacity: 0.2; transform-origin: 308.375px 246.644989px;" class="animable"></path></g><g id="eli5t569xie4h"><path d="M297.73,253.09s2.37,9,6.13,8.4S301.18,257.94,297.73,253.09Z" style="fill: rgb(255, 255, 255); opacity: 0.5; transform-origin: 301.365929px 257.304354px;" class="animable"></path></g><path d="M324.85,269.77,320.41,259H322a.91.91,0,0,0,.91-.91v-.35a.91.91,0,0,0-.91-.91H294.82a.91.91,0,0,0-.91.91v.35a.91.91,0,0,0,.91.91h1.59L292,269.79c-.19.44.16.63.61.81s.82.3,1-.14L298.31,259h9.22v11.21c0,.48.39.52.88.52s.87,0,.87-.52V259h9.23l4.73,11.4c.18.44.56.33,1,.14S325,270.21,324.85,269.77Z" style="fill: rgb(38, 50, 56); transform-origin: 308.417332px 263.796272px;" id="elo91mm3sxvlh" class="animable"></path><g id="elg257yjxb7g5"><path d="M324.79,269.77,320.35,259h1.58a.91.91,0,0,0,.91-.91v-.35a.91.91,0,0,0-.91-.91H294.75a.91.91,0,0,0-.91.91v.35a.91.91,0,0,0,.91.91h1.59l-4.45,10.75c-.18.44.17.63.61.81s.83.3,1-.14L298.24,259h9.22v11.21c0,.48.4.52.88.52s.88,0,.88-.52V259h9.23l4.72,11.4c.19.44.56.33,1,.14S325,270.21,324.79,269.77Z" style="fill: rgb(255, 255, 255); opacity: 0.4; transform-origin: 308.345098px 263.779984px;" class="animable"></path></g><polygon points="195.23 278.21 195.23 411.56 191.97 411.56 189.07 284.31 185.23 284.31 185.23 278.21 195.23 278.21" style="fill: rgb(64, 123, 255); transform-origin: 190.229996px 344.884995px;" id="elmu3xhv7k9a" class="animable"></polygon><polygon points="192.34 411.55 189.23 411.55 185.23 278.22 189.34 278.22 192.34 411.55" style="fill: rgb(64, 123, 255); transform-origin: 188.784996px 344.884995px;" id="ellgjtatgvhdn" class="animable"></polygon><g id="elxcywcqb2gi"><polygon points="195.23 278.21 195.23 411.56 191.97 411.56 189.07 284.31 185.23 284.31 185.23 278.21 195.23 278.21" style="fill: rgb(255, 255, 255); opacity: 0.3; transform-origin: 190.229996px 344.884995px;" class="animable"></polygon></g><polygon points="390.8 411.55 387.7 411.55 383.7 278.22 387.8 278.22 390.8 411.55" style="fill: rgb(64, 123, 255); transform-origin: 387.25px 344.884995px;" id="elj4un1enp79s" class="animable"></polygon><g id="elf6kc6zcz69"><polygon points="390.8 411.55 387.7 411.55 383.7 278.22 387.8 278.22 390.8 411.55" style="fill: rgb(255, 255, 255); opacity: 0.3; transform-origin: 387.25px 344.884995px;" class="animable"></polygon></g><polygon points="340.7 278.22 340.7 411.55 343.99 411.55 347.86 284.31 387.54 284.31 390.44 411.55 393.7 411.55 393.7 278.22 340.7 278.22" style="fill: rgb(64, 123, 255); transform-origin: 367.200012px 344.884995px;" id="elnq8423y8ra" class="animable"></polygon><g id="el7xq3qhl4l8m"><polygon points="340.7 278.22 340.7 411.55 343.99 411.55 347.86 284.31 387.54 284.31 390.44 411.55 393.7 411.55 393.7 278.22 340.7 278.22" style="fill: rgb(255, 255, 255); opacity: 0.5; transform-origin: 367.200012px 344.884995px;" class="animable"></polygon></g><polygon points="340.7 411.55 337.59 411.55 336.59 278.22 340.7 278.22 340.7 411.55" style="fill: rgb(64, 123, 255); transform-origin: 338.645004px 344.884995px;" id="elhwzk61bt3yb" class="animable"></polygon><g id="elu7s6utmlg4n"><polygon points="340.7 411.55 337.59 411.55 336.59 278.22 340.7 278.22 340.7 411.55" style="fill: rgb(255, 255, 255); opacity: 0.3; transform-origin: 338.645004px 344.884995px;" class="animable"></polygon></g><polygon points="185.03 278.21 185.03 284.31 149.19 284.31 145.32 411.56 142.03 411.56 142.03 278.21 185.03 278.21" style="fill: rgb(64, 123, 255); transform-origin: 163.529999px 344.884995px;" id="elicznl103b8" class="animable"></polygon><g id="elbc736lne018"><polygon points="185.03 278.21 185.03 284.31 149.19 284.31 145.32 411.56 142.03 411.56 142.03 278.21 185.03 278.21" style="fill: rgb(255, 255, 255); opacity: 0.3; transform-origin: 163.529999px 344.884995px;" class="animable"></polygon></g><g id="elr4ozziq4w0a"><polygon points="185.03 278.21 185.03 284.31 149.19 284.31 145.32 411.56 142.03 411.56 142.03 278.21 185.03 278.21" style="fill: none; opacity: 0.3; transform-origin: 163.529999px 344.884995px;" class="animable"></polygon></g><polygon points="142.03 411.55 138.92 411.55 137.92 278.22 142.03 278.22 142.03 411.55" style="fill: rgb(64, 123, 255); transform-origin: 139.974998px 344.884995px;" id="elfwl3gtxg3yw" class="animable"></polygon><rect x="132.49" y="270.55" width="205.65" height="7.67" style="fill: rgb(64, 123, 255); transform-origin: 235.315px 274.385px;" id="elnb11sf19t3" class="animable"></rect><g id="eln2w8mr46ly"><rect x="132.49" y="270.55" width="205.65" height="7.67" style="fill: rgb(255, 255, 255); opacity: 0.6; transform-origin: 235.315px 274.385px;" class="animable"></rect></g><rect x="333.36" y="270.55" width="65.78" height="7.67" style="fill: rgb(64, 123, 255); transform-origin: 366.25px 274.385px;" id="elocdrsdurvxq" class="animable"></rect><g id="elsqhhmp3q8n"><rect x="333.36" y="270.55" width="65.78" height="7.67" style="fill: rgb(255, 255, 255); opacity: 0.8; transform-origin: 366.25px 274.385px;" class="animable"></rect></g><path d="M348.58,232.27h-3.23a1.76,1.76,0,0,0-1.76,1.76v0a1.74,1.74,0,0,0,1,1.55V264a2,2,0,0,0,2,2h.79a2,2,0,0,0,2-2v-28.4a1.74,1.74,0,0,0,.95-1.55v0A1.76,1.76,0,0,0,348.58,232.27Z" style="fill: rgb(64, 123, 255); transform-origin: 346.960033px 249.134987px;" id="elytge37kse4k" class="animable"></path><g id="eln0265kc82dr"><path d="M348.58,232.27h-3.23a1.76,1.76,0,0,0-1.76,1.76v0a1.74,1.74,0,0,0,1,1.55V264a2,2,0,0,0,2,2h.79a2,2,0,0,0,2-2v-28.4a1.74,1.74,0,0,0,.95-1.55v0A1.76,1.76,0,0,0,348.58,232.27Z" style="fill: rgb(255, 255, 255); opacity: 0.6; transform-origin: 346.960033px 249.134987px;" class="animable"></path></g><path d="M344.27,232.65a8.12,8.12,0,0,0,5.39,0,1.77,1.77,0,0,0-1.08-.38h-3.23A1.77,1.77,0,0,0,344.27,232.65Z" style="fill: rgb(64, 123, 255); transform-origin: 346.964996px 232.690132px;" id="elaczgrg9w9j8" class="animable"></path><path d="M347,249c-.84,0-1.51-.22-1.53-.48V264a1.14,1.14,0,0,0,1.13,1.13h.79a1.14,1.14,0,0,0,1.13-1.13V248.47C348.47,248.73,347.8,249,347,249Z" style="fill: rgb(64, 123, 255); transform-origin: 346.99501px 256.800003px;" id="eldm9o3u730mp" class="animable"></path><path d="M348.49,248.46c0,.27-.68.49-1.52.49s-1.53-.22-1.53-.49.68-.49,1.53-.49S348.49,248.19,348.49,248.46Z" style="fill: rgb(64, 123, 255); transform-origin: 346.964996px 248.460007px;" id="el2uby0u5surd" class="animable"></path><g id="el9un80j5zdwk"><path d="M348.49,248.46c0,.27-.68.49-1.52.49s-1.53-.22-1.53-.49.68-.49,1.53-.49S348.49,248.19,348.49,248.46Z" style="opacity: 0.3; transform-origin: 346.964996px 248.460007px;" class="animable"></path></g><g id="elhynjg4fl24"><g style="opacity: 0.8; transform-origin: 345.87001px 249.909996px;" class="animable"><path d="M345.42,235.82V264a.45.45,0,0,0,.9,0V235.82a.45.45,0,0,0-.9,0Z" style="fill: rgb(255, 255, 255); transform-origin: 345.87001px 249.909996px;" id="elrmz515xoyh" class="animable"></path></g></g><path d="M361,232.27h-3.23a1.76,1.76,0,0,0-1.76,1.76v0a1.74,1.74,0,0,0,.95,1.55V264a2,2,0,0,0,2,2h.8a2,2,0,0,0,2-2v-28.4a1.74,1.74,0,0,0,.95-1.55v0A1.76,1.76,0,0,0,361,232.27Z" style="fill: rgb(64, 123, 255); transform-origin: 359.360048px 249.134987px;" id="elpdaqcglwcs8" class="animable"></path><g id="elkoihwf8viwl"><path d="M361,232.27h-3.23a1.76,1.76,0,0,0-1.76,1.76v0a1.74,1.74,0,0,0,.95,1.55V264a2,2,0,0,0,2,2h.8a2,2,0,0,0,2-2v-28.4a1.74,1.74,0,0,0,.95-1.55v0A1.76,1.76,0,0,0,361,232.27Z" style="fill: rgb(255, 255, 255); opacity: 0.6; transform-origin: 359.360048px 249.134987px;" class="animable"></path></g><path d="M356.73,232.65a5.65,5.65,0,0,0,2.7.46,5.71,5.71,0,0,0,2.7-.46,1.8,1.8,0,0,0-1.09-.38h-3.23A1.77,1.77,0,0,0,356.73,232.65Z" style="fill: rgb(64, 123, 255); transform-origin: 359.430023px 232.698165px;" id="ellnyv7743l6k" class="animable"></path><path d="M359.43,243.44c-.84,0-1.51-.22-1.53-.48v21a1.14,1.14,0,0,0,1.13,1.13h.8A1.13,1.13,0,0,0,361,264V243C360.93,243.22,360.26,243.44,359.43,243.44Z" style="fill: rgb(64, 123, 255); transform-origin: 359.449997px 254.025384px;" id="elgqx6vtl4ywj" class="animable"></path><path d="M361,243c0,.27-.69.49-1.53.49s-1.53-.22-1.53-.49.68-.49,1.53-.49S361,242.68,361,243Z" style="fill: rgb(64, 123, 255); transform-origin: 359.470001px 243px;" id="elsp4yaeb6nhf" class="animable"></path><g id="elpisogzknf7a"><path d="M361,243c0,.27-.69.49-1.53.49s-1.53-.22-1.53-.49.68-.49,1.53-.49S361,242.68,361,243Z" style="opacity: 0.3; transform-origin: 359.470001px 243px;" class="animable"></path></g><g id="elaulge8vhnyr"><g style="opacity: 0.8; transform-origin: 358.329987px 249.909996px;" class="animable"><path d="M357.88,235.82V264a.45.45,0,0,0,.9,0V235.82a.45.45,0,0,0-.9,0Z" style="fill: rgb(255, 255, 255); transform-origin: 358.329987px 249.909996px;" id="el9y3lmuao1n" class="animable"></path></g></g><path d="M373.5,232.27h-3.22a1.76,1.76,0,0,0-1.77,1.76v0a1.74,1.74,0,0,0,.95,1.55V264a2,2,0,0,0,2,2h.8a2,2,0,0,0,2-2v-28.4a1.74,1.74,0,0,0,.95-1.55v0A1.76,1.76,0,0,0,373.5,232.27Z" style="fill: rgb(64, 123, 255); transform-origin: 371.860078px 249.134987px;" id="el89r1ib6zkgv" class="animable"></path><g id="el0sqamlgy1oxa"><path d="M373.5,232.27h-3.22a1.76,1.76,0,0,0-1.77,1.76v0a1.74,1.74,0,0,0,.95,1.55V264a2,2,0,0,0,2,2h.8a2,2,0,0,0,2-2v-28.4a1.74,1.74,0,0,0,.95-1.55v0A1.76,1.76,0,0,0,373.5,232.27Z" style="fill: rgb(255, 255, 255); opacity: 0.6; transform-origin: 371.860078px 249.134987px;" class="animable"></path></g><path d="M369.19,232.65a5.65,5.65,0,0,0,2.7.46,5.71,5.71,0,0,0,2.7-.46,1.8,1.8,0,0,0-1.09-.38h-3.22A1.78,1.78,0,0,0,369.19,232.65Z" style="fill: rgb(64, 123, 255); transform-origin: 371.890015px 232.698165px;" id="el2e0l5bmzd3r" class="animable"></path><path d="M371.89,249c-.84,0-1.51-.22-1.53-.48V264a1.14,1.14,0,0,0,1.13,1.13h.8a1.13,1.13,0,0,0,1.12-1.13V248.47C373.4,248.73,372.72,249,371.89,249Z" style="fill: rgb(64, 123, 255); transform-origin: 371.88501px 256.800003px;" id="elgvmd1nym6zw" class="animable"></path><path d="M373.42,248.46c0,.27-.69.49-1.53.49s-1.53-.22-1.53-.49.68-.49,1.53-.49S373.42,248.19,373.42,248.46Z" style="fill: rgb(64, 123, 255); transform-origin: 371.890015px 248.460007px;" id="elw52617bfrbn" class="animable"></path><g id="elttfm5h5h9k"><path d="M373.42,248.46c0,.27-.69.49-1.53.49s-1.53-.22-1.53-.49.68-.49,1.53-.49S373.42,248.19,373.42,248.46Z" style="opacity: 0.3; transform-origin: 371.890015px 248.460007px;" class="animable"></path></g><g id="elc0lr14xbgyf"><g style="opacity: 0.8; transform-origin: 370.789993px 249.909996px;" class="animable"><path d="M370.34,235.82V264a.45.45,0,0,0,.9,0V235.82a.45.45,0,0,0-.9,0Z" style="fill: rgb(255, 255, 255); transform-origin: 370.789993px 249.909996px;" id="elsn2r1mno6pg" class="animable"></path></g></g><path d="M381.53,239.84a1,1,0,0,0,1-1v-1a1,1,0,0,0-1-1h-56a1,1,0,0,0-1,1v1a1,1,0,0,0,1,1h1.58v28h-1.58a1,1,0,0,0-1,1v1a1,1,0,0,0,1,1h56a1,1,0,0,0,1-1v-1a1,1,0,0,0-1-1H380v-28Zm-4.13,28H329.61v-28H377.4Z" style="fill: rgb(38, 50, 56); transform-origin: 353.529999px 253.839996px;" id="el9ehjc1p82z5" class="animable"></path><g id="elvzlfgw12rut"><path d="M381.53,239.84a1,1,0,0,0,1-1v-1a1,1,0,0,0-1-1h-56a1,1,0,0,0-1,1v1a1,1,0,0,0,1,1h1.58v28h-1.58a1,1,0,0,0-1,1v1a1,1,0,0,0,1,1h56a1,1,0,0,0,1-1v-1a1,1,0,0,0-1-1H380v-28Zm-4.13,28H329.61v-28H377.4Z" style="fill: rgb(255, 255, 255); opacity: 0.4; transform-origin: 353.529999px 253.839996px;" class="animable"></path></g><path d="M204.63,269.55c0,.05,0,.1,0,.15a1.1,1.1,0,0,1-1.1,1.08l-27.74-.34a1.09,1.09,0,0,1-1.06-1,.61.61,0,0,1,0-.14,1.09,1.09,0,0,1,.73-1h0a1.06,1.06,0,0,1,.35-.05l27.74.33a1,1,0,0,1,.94.58A1,1,0,0,1,204.63,269.55Z" style="fill: rgb(64, 123, 255); transform-origin: 189.677975px 269.514808px;" id="elp6jzgt8uk4" class="animable"></path><path d="M202.54,270.78l49.31-.34a1.08,1.08,0,0,0,1.08-1.09h0a1.1,1.1,0,0,0-1.09-1.08l-49.31.34a1.1,1.1,0,0,0-1.08,1.09h0A1.1,1.1,0,0,0,202.54,270.78Z" style="fill: rgb(64, 123, 255); transform-origin: 227.190018px 269.525009px;" id="el1y16yg6sluf" class="animable"></path><g id="elagjuyajwvn5"><path d="M202.54,270.78l49.31-.34a1.08,1.08,0,0,0,1.08-1.09h0a1.1,1.1,0,0,0-1.09-1.08l-49.31.34a1.1,1.1,0,0,0-1.08,1.09h0A1.1,1.1,0,0,0,202.54,270.78Z" style="opacity: 0.5; transform-origin: 227.190018px 269.525009px;" class="animable"></path></g><path d="M255.46,237.57l-2.22,27.24a3.85,3.85,0,0,1-2.84,3.35,3.18,3.18,0,0,1-.76.13h-.13l-45.41.31H204a3.11,3.11,0,0,1-3.11-3.43l2.22-27.24a3.84,3.84,0,0,1,3.73-3.47h.69l44.72-.32A3.12,3.12,0,0,1,255.46,237.57Z" style="fill: rgb(64, 123, 255); transform-origin: 228.174561px 251.369135px;" id="eldjb9h1wqe5o" class="animable"></path><path d="M253.87,234l-45.41.32a3.42,3.42,0,0,0-.89.13,3.84,3.84,0,0,0-2.84,3.34l-2.21,27.25a3.1,3.1,0,0,0,3.17,3.43l44.71-.32h.69a3.83,3.83,0,0,0,3.73-3.47L257,237.44A3.12,3.12,0,0,0,253.87,234Z" style="fill: rgb(64, 123, 255); transform-origin: 229.759354px 251.235563px;" id="elfu8lefwhp49" class="animable"></path><g id="eldxav719qmpb"><path d="M253.87,234l-45.41.32a3.42,3.42,0,0,0-.89.13,3.84,3.84,0,0,0-2.84,3.34l-2.21,27.25a3.1,3.1,0,0,0,3.17,3.43l44.71-.32h.69a3.83,3.83,0,0,0,3.73-3.47L257,237.44A3.12,3.12,0,0,0,253.87,234Z" style="fill: rgb(255, 255, 255); opacity: 0.2; transform-origin: 229.759354px 251.235563px;" class="animable"></path></g><path d="M231.29,253.24a2,2,0,0,0,2,2,1.92,1.92,0,0,0,.92-.22,2.53,2.53,0,0,1-.67.54,2.72,2.72,0,1,1,0-4.71,2.86,2.86,0,0,1,.82.73l-.08,0a1.86,1.86,0,0,0-1-.27A2,2,0,0,0,231.29,253.24Z" style="fill: rgb(255, 255, 255); transform-origin: 231.909477px 253.204987px;" id="elt2r3592gnt" class="animable"></path><polygon points="143.95 276.06 143.9 276.08 143.85 276.06 143.9 276.05 143.95 276.06" style="fill: rgb(240, 240, 240); transform-origin: 143.900002px 276.064987px;" id="el0ybpl07k9omg" class="animable"></polygon></g><g id="freepik--speech-bubbles--inject-12" style="transform-origin: 226.255287px 121.163708px;" class="animable"><path d="M248.39,97.07A8.21,8.21,0,1,1,252,82.32h0a8.21,8.21,0,0,1-3.57,14.75Zm-2.32-14.83a6.79,6.79,0,1,0,5.06,1.22h0A6.73,6.73,0,0,0,246.07,82.24Z" style="fill: rgb(64, 123, 255); transform-origin: 247.164603px 88.952713px;" id="elmvjacc4kv9l" class="animable"></path><g id="elix7j1kjiai"><rect x="258.59" y="93.09" width="1.41" height="9.48" style="fill: rgb(64, 123, 255); transform-origin: 259.295px 97.83px; transform: rotate(-53.9deg);" class="animable"></rect></g><g id="el1b1tc59o7ia"><rect x="254.19" y="92.88" width="1.41" height="3.48" style="fill: rgb(64, 123, 255); transform-origin: 254.895px 94.62px; transform: rotate(-53.9deg);" class="animable"></rect></g><path d="M264.43,126.72l-2.16-.53a33.27,33.27,0,0,1-6.76-2.18l-.28-.14c-2.13-1-4.78-2.31-5.34-6.78a1.21,1.21,0,0,0-1-1.2c-19.79-1-35.38-11.94-34.78-24.49s17.2-22,37-21,35.37,11.94,34.76,24.5c-.38,8-7.49,15.19-18.54,18.75-.31.12-.92.28-1.68.49-2.76.72-7.89,2.08-9.18,4.76-.64,1.32.38,3,1.67,4C258.72,123.29,264.43,126.72,264.43,126.72ZM248.28,71.19c-18.07,0-32.76,8.76-33.31,20.26-.59,12,14.63,22.61,33.91,23.54a2.09,2.09,0,0,1,1.89,2c.51,4,2.82,5.1,4.85,6.08l.29.14a21,21,0,0,0,3,1.17,12.94,12.94,0,0,1-1.38-.83c-1.62-1.17-2.81-3.29-1.95-5.07,1.47-3,6.86-4.48,9.76-5.24a16.07,16.07,0,0,0,1.61-.47c10.72-3.44,17.58-10.31,17.95-18,.58-12.06-14.63-22.62-33.91-23.55C250.08,71.21,249.17,71.19,248.28,71.19Z" style="fill: rgb(64, 123, 255); transform-origin: 249.990284px 98.52371px;" id="elqsh3mthhb68" class="animable"></path><path d="M194.38,168.06c1.28-.93,2.3-2.63,1.67-3.95-1.29-2.68-6.42-4-9.18-4.76-.77-.21-1.37-.37-1.69-.5-11.05-3.55-18.15-10.73-18.54-18.74-.6-12.56,15-23.55,34.76-24.5s36.36,8.49,37,21-15,23.54-34.77,24.49a1.21,1.21,0,0,0-1,1.2c-.57,4.47-3.22,5.75-5.35,6.78l-.28.14a33,33,0,0,1-6.75,2.18L188,172S193.71,168.54,194.38,168.06Zm7.06-51.55c-19.27.93-34.48,11.49-33.9,23.55.36,7.64,7.23,14.51,17.94,17.95a16.48,16.48,0,0,0,1.62.47c2.89.76,8.29,2.19,9.75,5.24.86,1.78-.33,3.9-1.95,5.07a12.8,12.8,0,0,1-1.37.83,21.92,21.92,0,0,0,3-1.17l.28-.14c2-1,4.35-2.1,4.85-6.08a2.09,2.09,0,0,1,1.89-2c19.28-.93,34.5-11.49,33.92-23.55-.55-11.49-15.25-20.25-33.31-20.25C203.26,116.44,202.36,116.46,201.44,116.51Z" style="fill: rgb(64, 123, 255); transform-origin: 202.521095px 143.772068px;" id="elpnuxxgae4fn" class="animable"></path><path d="M208.06,155.61H194.35a.51.51,0,0,1-.5-.39.5.5,0,0,1,.26-.56l7.07-3.7a.48.48,0,0,1,.48,0l6.65,3.69a.51.51,0,0,1-.25,1Z" style="fill: rgb(64, 123, 255); transform-origin: 201.267978px 153.280463px;" id="el3jk9m1dujjp" class="animable"></path><path d="M201.47,150.29a.51.51,0,0,1-.51-.51V144a.51.51,0,0,1,1,0v5.77A.51.51,0,0,1,201.47,150.29Z" style="fill: rgb(64, 123, 255); transform-origin: 201.460052px 146.940239px;" id="elkh3cey4p6ti" class="animable"></path><path d="M199.88,152.69a.51.51,0,0,1-.2-1c1.94-.89,4.7-2.73,4.46-3.5,0-.06-.29-.33-1.19-.51a.51.51,0,1,1,.2-1c1.11.22,1.79.64,2,1.2a1.7,1.7,0,0,1-.39,1.52,9.64,9.64,0,0,1-2.77,2.21c-.51.3-1,.56-1.29.72C200,152.69,200,152.69,199.88,152.69Z" style="fill: rgb(64, 123, 255); transform-origin: 202.236981px 149.683074px;" id="elwz1aazks3bd" class="animable"></path><path d="M199.61,147.19l-.12,0a2.22,2.22,0,0,1-1.66-1.72c-.1-.71.2-1.8,2.17-2.95a27.45,27.45,0,0,1,2.94-1.43c4.61-2,12.33-5.49,12.33-11.24,0-2.23-.67-3.82-2-4.71-3.25-2.2-7.38,2.36-7.44,2.38-.26.11-2.62-2.12-2.73-2.38a.51.51,0,0,1,.28-.66c.28-.11,6.76-2.68,10.46-.19,1.62,1.1,2.44,3,2.44,5.56,0,6.41-8.1,10-12.94,12.17a27.15,27.15,0,0,0-2.81,1.36h0c-1.15.67-1.76,1.38-1.69,1.95a1.22,1.22,0,0,0,.91.87.51.51,0,0,1-.13,1Z" style="fill: rgb(64, 123, 255); transform-origin: 207.046601px 135.203737px;" id="el9vzry0wjx4f" class="animable"></path><path d="M203.51,129c-1.5,0-2.61-.48-2.86-1.36a2.06,2.06,0,0,1,.85-2,8.18,8.18,0,0,1,3.16-1.62c2.08-.59,4.06-.46,4.91.32a1.46,1.46,0,0,1,.42.67c.37,1.33-1.35,2.89-4,3.64h0A9.25,9.25,0,0,1,203.51,129Zm2.33-.88Z" style="fill: rgb(64, 123, 255); transform-origin: 205.332801px 126.326213px;" id="ele68p6yysett" class="animable"></path><path d="M201.28,140.23a9.82,9.82,0,0,1-9.82-9.8v-.51h19.63v.51A9.81,9.81,0,0,1,201.28,140.23Z" style="fill: rgb(64, 123, 255); transform-origin: 201.274994px 135.074997px;" id="el8r2s0t5y1n8" class="animable"></path><path d="M202.46,127.69a5.25,5.25,0,0,1-5.05.27,4.82,4.82,0,0,0-1-.42c-.35-.07-.65-.22-.85.07a1.1,1.1,0,0,1,1.36-.39c-.27-.32-.53-.58-.93-.46.86-.34,1.09-.28,1.78.34,1.63,1.46,3.39.65,3.62.18C201.8,127.48,202.08,127.5,202.46,127.69Z" style="fill: rgb(64, 123, 255); transform-origin: 199.010002px 127.517412px;" id="el6adaelvj5jt" class="animable"></path></g><defs>     <filter id="active" height="200%">         <feMorphology in="SourceAlpha" result="DILATED" operator="dilate" radius="2"></feMorphology>                <feFlood flood-color="#32DFEC" flood-opacity="1" result="PINK"></feFlood>        <feComposite in="PINK" in2="DILATED" operator="in" result="OUTLINE"></feComposite>        <feMerge>            <feMergeNode in="OUTLINE"></feMergeNode>            <feMergeNode in="SourceGraphic"></feMergeNode>        </feMerge>    </filter>    <filter id="hover" height="200%">        <feMorphology in="SourceAlpha" result="DILATED" operator="dilate" radius="2"></feMorphology>                <feFlood flood-color="#ff0000" flood-opacity="0.5" result="PINK"></feFlood>        <feComposite in="PINK" in2="DILATED" operator="in" result="OUTLINE"></feComposite>        <feMerge>            <feMergeNode in="OUTLINE"></feMergeNode>            <feMergeNode in="SourceGraphic"></feMergeNode>        </feMerge>            <feColorMatrix type="matrix" values="0   0   0   0   0                0   1   0   0   0                0   0   0   0   0                0   0   0   1   0 "></feColorMatrix>    </filter></defs></svg>